# File produced by Open Asset Import Library (http://www.assimp.sf.net)
# (assimp v5.0.639693989)

mtllib js2yhk0kkyds.mtl

# 138 vertex positions
v  1.0701866 2.1928363 -3.7
v  1.0180922 2.1026061 -2.0999999
v  1 2 -3.7
v  1.0180922 1.8973939 -2.0999999
v  1.0701866 1.8071637 -3.7
v  1.15 1.7401924 -2.0999999
v  1.2479055 1.7045577 -3.7
v  1.3520944 1.7045577 -2.0999999
v  1.45 1.7401924 -3.7
v  1.5298133 1.8071637 -2.0999999
v  1.5819077 1.8973939 -3.7
v  1.6 2 -2.0999999
v  1.5819077 2.1026061 -3.7
v  1.5298133 2.1928363 -2.0999999
v  1.45 2.2598076 -3.7
v  1.3520944 2.2954423 -2.0999999
v  1.2479055 2.2954423 -3.7
v  1.15 2.2598076 -2.0999999
v  -1.5298133 2.1928363 -3.7
v  -1.5819077 2.1026061 -2.0999999
v  -1.6 2 -3.7
v  -1.5819077 1.8973939 -2.0999999
v  -1.5298133 1.8071637 -3.7
v  -1.45 1.7401924 -2.0999999
v  -1.3520944 1.7045577 -3.7
v  -1.2479055 1.7045577 -2.0999999
v  -1.15 1.7401924 -3.7
v  -1.0701866 1.8071637 -2.0999999
v  -1.0180922 1.8973939 -3.7
v  -1 2 -2.0999999
v  -1.0180922 2.1026061 -3.7
v  -1.0701866 2.1928363 -2.0999999
v  -1.15 2.2598076 -3.7
v  -1.2479055 2.2954423 -2.0999999
v  -1.3520944 2.2954423 -3.7
v  -1.45 2.2598076 -2.0999999
v  -1.8 3 2.7
v  1.8 3 2.7
v  -1.95 2.8499999 2.7
v  1.95 2.8499999 2.7
v  -1.95 1.2 2.7
v  1.95 1.2 2.7
v  1.95 0.80000001 3.7198789
v  1.95 2.8499999 3.7198789
v  0.87870818 0 4.1070514
v  0.67304474 2.8499999 4.1457219
v  -0.87870818 0 4.1070514
v  -0.67304474 2.8499999 4.1457219
v  -1.95 2.8499999 3.7198789
v  -1.95 0.80000001 3.7198789
v  -2.4822752 0 3.3879654
v  -3.052671 0.80000001 2.884649
v  -3.6512313 0 2.075695
v  -3.8242044 0.80000001 1.7365081
v  -4.1809092 0 0.40000001
v  -4.1809092 0.80000001 0.40000001
v  2.4822752 0 3.3879654
v  3.052671 0.80000001 2.884649
v  3.6512313 0 2.075695
v  3.8242044 0.80000001 1.7365081
v  4.1809092 0 0.40000001
v  4.1809092 0.80000001 0.40000001
v  0.38708225 2.3248005 -2.0999999
v  0.47482669 2.1728227 -3.7
v  0.50529999 2 -2.0999999
v  0.47482669 1.8271772 -3.7
v  0.38708225 1.6751994 -2.0999999
v  0.25264999 1.5623974 -3.7
v  0.087744422 1.5023767 -2.0999999
v  -0.087744422 1.5023767 -3.7
v  -0.25264999 1.5623974 -2.0999999
v  -0.38708225 1.6751994 -3.7
v  -0.47482669 1.8271772 -2.0999999
v  -0.50529999 2 -3.7
v  -0.47482669 2.1728227 -2.0999999
v  -0.38708225 2.3248005 -3.7
v  -0.25264999 2.4376025 -2.0999999
v  -0.087744422 2.4976234 -3.7
v  0.087744422 2.4976234 -2.0999999
v  0.25264999 2.4376025 -3.7
v  -1.95 2.8499999 -3.7
v  -1.95 2.8499999 -2.0999999
v  -1.8 3 -3.55
v  -1.8 3 -2.0999999
v  1.8 3 -3.55
v  1.95 2.8499999 -3.7
v  1.8 3 -2.0999999
v  1.95 2.8499999 -2.0999999
v  -1.95 1.2 -2.0999999
v  -1.95 0.80000001 -3.7
v  1.8 3 3.628016
v  -1.8 3 3.628016
v  -0.61930859 3 4.0023689
v  0.61930859 3 4.0023689
v  1.95 1.2 -2.0999999
v  1.95 0.80000001 -3.7
v  -4.1809092 0 -0.40000001
v  -3.3 0 -0.40000001
v  -4.1809092 0.80000001 -0.40000001
v  -3.3 0.80000001 -0.40000001
v  4.1809092 0.80000001 -0.40000001
v  4.1809092 0 -0.40000001
v  3.6512313 0.80000001 -2.075695
v  3.6512313 0 -2.075695
v  2.4822752 0 -3.3879654
v  0.87870818 0 -4.1070514
v  1.9582042 0.80000001 -3.7155669
v  2.4822752 0.80000001 -3.3879654
v  0.87870818 0.80000001 -4.1070514
v  -0.87870818 0 -4.1070514
v  -0.87870818 0.80000001 -4.1070514
v  -1.9582042 0.80000001 -3.7155669
v  -2.4822752 0 -3.3879654
v  -2.4822752 0.80000001 -3.3879654
v  -3.6512313 0 -2.075695
v  -3.6512313 0.80000001 -2.075695
v  3.3 0 -0.40000001
v  3.3 0.80000001 -0.40000001
v  3.3 0.80000001 0.40000001
v  3.3 0 0.40000001
v  3.0648859 0.80000001 0.32360679
v  3.0648859 0 0.32360679
v  2.9195774 0 0.1236068
v  2.9195774 0.80000001 0.1236068
v  2.9195774 0 -0.1236068
v  2.9195774 0.80000001 -0.1236068
v  3.0648859 0 -0.32360679
v  3.0648859 0.80000001 -0.32360679
v  -3.3 0 0.40000001
v  -3.3 0.80000001 0.40000001
v  -3.0648859 0.80000001 -0.32360679
v  -3.0648859 0 -0.32360679
v  -2.9195774 0 -0.1236068
v  -2.9195774 0.80000001 -0.1236068
v  -2.9195774 0 0.1236068
v  -2.9195774 0.80000001 0.1236068
v  -3.0648859 0 0.32360679
v  -3.0648859 0.80000001 0.32360679

# 0 UV coordinates

# 103 vertex normals
vn 0.93963265 -0.34199804 0.011306932
vn 0.9999361 0 -0.011306874
vn 0.93963265 0.34199804 0.011306932
vn 0.76599526 0.64274675 -0.011306919
vn 0.49996811 0.86597002 0.011306877
vn 0.17363733 0.98474473 -0.011306928
vn -0.17363724 0.98474479 0.011306921
vn -0.49996808 0.86597002 -0.011306915
vn -0.76599556 0.64274639 0.011306891
vn -0.93963248 0.34199858 -0.011306897
vn -0.9999361 0 0.011306948
vn -0.93963248 -0.34199858 -0.011306897
vn -0.76599556 -0.64274639 0.011306891
vn -0.49996808 -0.86597002 -0.011306915
vn -0.17363724 -0.98474479 0.011306921
vn 0.17363733 -0.98474473 -0.011306928
vn 0.49996811 -0.86597002 0.011306877
vn 0.76599526 -0.64274675 -0.011306919
vn 0.93963248 -0.34199858 0.011306897
vn 0.9999361 0 -0.011306948
vn 0.93963248 0.34199858 0.011306897
vn 0.76599556 0.64274639 -0.011306891
vn 0.49996808 0.86597002 0.011306915
vn 0.17363724 0.98474479 -0.011306921
vn -0.17363733 0.98474473 0.011306928
vn -0.49996811 0.86597002 -0.011306877
vn -0.76599526 0.64274675 0.011306919
vn -0.93963265 0.34199804 -0.011306932
vn -0.9999361 0 0.011306874
vn -0.93963265 -0.34199804 -0.011306932
vn -0.76599526 -0.64274675 0.011306919
vn -0.49996811 -0.86597002 -0.011306877
vn -0.17363733 -0.98474473 0.011306928
vn 0.17363724 -0.98474479 -0.011306921
vn 0.49996808 -0.86597002 0.011306915
vn 0.76599556 -0.64274639 -0.011306891
vn 0 0 -1
vn 0.33989069 0 0.94046497
vn 0.31633994 0.009956819 0.94859362
vn 0 -0.013567362 0.99990797
vn -0.31633994 0.009956819 0.94859362
vn -0.33989069 0 0.94046497
vn -0.40687856 -0.10573469 0.90734226
vn -0.60228288 0.070830621 0.79513419
vn -0.74190605 -0.11318425 0.66088176
vn -0.82866144 0.056924239 0.55684811
vn -0.95058405 -0.078135706 0.30047432
vn -0.96618044 0 0.25786683
vn 0.40687856 -0.10573469 0.90734226
vn 0.60228288 0.070830621 0.79513419
vn 0.74190605 -0.11318425 0.66088176
vn 0.82866144 0.056924239 0.55684811
vn 0.95058405 -0.078135706 0.30047432
vn 0.96618044 0 0.25786683
vn -0.93952221 -0.34195819 -0.019042378
vn -0.99981868 0 0.019042352
vn -0.93952227 0.34195808 -0.019042391
vn -0.76590544 0.64267117 0.019042365
vn -0.49990919 0.86586845 -0.019042371
vn -0.17361659 0.98462921 0.019042358
vn 0.17361659 0.98462921 -0.019042358
vn 0.49990919 0.86586845 0.019042371
vn 0.76590544 0.64267117 -0.019042365
vn 0.93952227 0.34195808 0.019042391
vn 0.99981868 0 -0.019042352
vn 0.93952221 -0.34195819 0.019042378
vn 0.76590544 -0.64267117 -0.019042365
vn 0.49990973 -0.86586815 0.019042306
vn 0.17361726 -0.98462909 -0.019042432
vn -0.17361726 -0.98462909 0.019042432
vn -0.49990973 -0.86586815 -0.019042306
vn -0.76590544 -0.64267117 0.019042365
vn -0.70710677 0.70710677 0
vn 0 0.70710677 -0.70710677
vn 0.70710677 0.70710677 0
vn 0 1 0
vn -1 -0 -0
vn -0.23545864 0.66786247 0.70605874
vn -0.21166359 0.7138204 0.66757691
vn 0 0.69090706 0.7229436
vn 0.21166359 0.7138204 0.66757691
vn 0.23545864 0.66786247 0.70605874
vn 1 0 0
vn 0 0 1
vn 0.95349914 0 -0.30139577
vn 0.7467044 0 -0.66515607
vn 0.40690935 -0.10502461 -0.90741092
vn 0.53006524 0 -0.84795684
vn 0.34092802 0 -0.9400894
vn -0.34092802 -0 -0.9400894
vn -0.40690935 -0.10502461 -0.90741092
vn -0.53006524 0 -0.84795684
vn -0.7467044 -0 -0.66515607
vn -0.95349914 -0 -0.30139577
vn 0.30901706 0 -0.95105648
vn 0.809017 0 -0.58778524
vn 0.809017 0 0.58778524
vn 0.30901706 0 0.95105648
vn -0.30901706 0 0.95105648
vn -0.809017 0 0.58778524
vn -0.809017 -0 -0.58778524
vn -0.30901706 -0 -0.95105648
vn 0 -1 0

# Mesh '' with 284 faces
usemtl DefaultMaterial
f  1//1 2//1 3//1
f  3//2 2//2 4//2
f  3//3 4//3 5//3
f  5//4 4//4 6//4
f  5//5 6//5 7//5
f  7//6 6//6 8//6
f  7//7 8//7 9//7
f  9//8 8//8 10//8
f  9//9 10//9 11//9
f  11//10 10//10 12//10
f  11//11 12//11 13//11
f  13//12 12//12 14//12
f  13//13 14//13 15//13
f  15//14 14//14 16//14
f  15//15 16//15 17//15
f  17//16 16//16 18//16
f  17//17 18//17 1//17
f  1//18 18//18 2//18
f  19//19 20//19 21//19
f  21//20 20//20 22//20
f  21//21 22//21 23//21
f  23//22 22//22 24//22
f  23//23 24//23 25//23
f  25//24 24//24 26//24
f  25//25 26//25 27//25
f  27//26 26//26 28//26
f  27//27 28//27 29//27
f  29//28 28//28 30//28
f  29//29 30//29 31//29
f  31//30 30//30 32//30
f  31//31 32//31 33//31
f  33//32 32//32 34//32
f  33//33 34//33 35//33
f  35//34 34//34 36//34
f  35//35 36//35 19//35
f  19//36 36//36 20//36
f  37//37 38//37 39//37
f  39//37 38//37 40//37
f  39//37 40//37 41//37
f  41//37 40//37 42//37
f  43//38 44//38 45//38
f  45//39 44//39 46//39
f  45//40 46//40 47//40
f  47//40 46//40 48//40
f  47//41 48//41 49//41
f  49//42 50//42 47//42
f  47//43 50//43 51//43
f  51//44 50//44 52//44
f  51//45 52//45 53//45
f  53//46 52//46 54//46
f  53//47 54//47 55//47
f  55//48 54//48 56//48
f  45//49 57//49 43//49
f  43//50 57//50 58//50
f  58//51 57//51 59//51
f  58//52 59//52 60//52
f  60//53 59//53 61//53
f  60//54 61//54 62//54
f  63//55 64//55 65//55
f  65//56 64//56 66//56
f  65//57 66//57 67//57
f  67//58 66//58 68//58
f  67//59 68//59 69//59
f  69//60 68//60 70//60
f  69//61 70//61 71//61
f  71//62 70//62 72//62
f  71//63 72//63 73//63
f  73//64 72//64 74//64
f  73//65 74//65 75//65
f  75//66 74//66 76//66
f  75//67 76//67 77//67
f  77//68 76//68 78//68
f  77//69 78//69 79//69
f  79//70 78//70 80//70
f  79//71 80//71 63//71
f  63//72 80//72 64//72
f  81//73 82//73 83//73
f  83//73 82//73 84//73
f  83//74 85//74 81//74
f  81//74 85//74 86//74
f  87//75 88//75 85//75
f  85//75 88//75 86//75
f  87//76 85//76 84//76
f  84//76 85//76 83//76
f  82//77 81//77 89//77
f  89//77 81//77 90//77
f  89//77 90//77 50//77
f  89//77 50//77 41//77
f  41//77 50//77 49//77
f  41//77 49//77 39//77
f  44//75 40//75 91//75
f  91//75 40//75 38//75
f  49//78 48//78 92//78
f  92//79 48//79 93//79
f  93//80 48//80 46//80
f  93//80 46//80 94//80
f  94//81 46//81 91//81
f  91//82 46//82 44//82
f  37//73 39//73 92//73
f  92//73 39//73 49//73
f  88//83 95//83 86//83
f  86//83 95//83 96//83
f  96//83 95//83 43//83
f  43//83 95//83 42//83
f  43//83 42//83 44//83
f  44//83 42//83 40//83
f  42//76 95//76 41//76
f  41//76 95//76 89//76
f  10//84 95//84 12//84
f  12//84 95//84 88//84
f  12//84 88//84 14//84
f  14//84 88//84 16//84
f  16//84 88//84 87//84
f  16//84 87//84 18//84
f  18//84 87//84 63//84
f  18//84 63//84 2//84
f  2//84 63//84 65//84
f  2//84 65//84 4//84
f  4//84 65//84 67//84
f  4//84 67//84 6//84
f  6//84 67//84 95//84
f  6//84 95//84 8//84
f  8//84 95//84 10//84
f  28//84 73//84 30//84
f  30//84 73//84 75//84
f  30//84 75//84 32//84
f  32//84 75//84 77//84
f  32//84 77//84 34//84
f  34//84 77//84 84//84
f  34//84 84//84 82//84
f  73//84 28//84 71//84
f  71//84 28//84 26//84
f  71//84 26//84 89//84
f  89//84 26//84 24//84
f  89//84 24//84 22//84
f  22//84 20//84 89//84
f  89//84 20//84 82//84
f  82//84 20//84 36//84
f  82//84 36//84 34//84
f  67//84 69//84 95//84
f  95//84 69//84 89//84
f  89//84 69//84 71//84
f  77//84 79//84 84//84
f  84//84 79//84 87//84
f  87//84 79//84 63//84
f  38//76 37//76 91//76
f  91//76 37//76 94//76
f  94//76 37//76 93//76
f  93//76 37//76 92//76
f  5//37 66//37 3//37
f  3//37 66//37 64//37
f  3//37 64//37 1//37
f  1//37 64//37 80//37
f  1//37 80//37 17//37
f  17//37 80//37 86//37
f  17//37 86//37 15//37
f  15//37 86//37 13//37
f  13//37 86//37 11//37
f  11//37 86//37 96//37
f  11//37 96//37 9//37
f  9//37 96//37 7//37
f  7//37 96//37 68//37
f  7//37 68//37 5//37
f  5//37 68//37 66//37
f  23//37 90//37 21//37
f  21//37 90//37 81//37
f  21//37 81//37 19//37
f  19//37 81//37 35//37
f  35//37 81//37 33//37
f  33//37 81//37 76//37
f  33//37 76//37 31//37
f  31//37 76//37 74//37
f  31//37 74//37 29//37
f  29//37 74//37 72//37
f  29//37 72//37 27//37
f  27//37 72//37 70//37
f  27//37 70//37 25//37
f  25//37 70//37 90//37
f  25//37 90//37 23//37
f  90//37 70//37 96//37
f  96//37 70//37 68//37
f  80//37 78//37 86//37
f  86//37 78//37 81//37
f  81//37 78//37 76//37
f  97//84 98//84 99//84
f  99//84 98//84 100//84
f  101//85 102//85 103//85
f  103//85 102//85 104//85
f  103//86 104//86 105//86
f  106//87 107//87 105//87
f  105//88 107//88 108//88
f  105//86 108//86 103//86
f  107//89 106//89 109//89
f  109//37 106//37 110//37
f  109//37 110//37 111//37
f  111//90 110//90 112//90
f  112//91 110//91 113//91
f  112//92 113//92 114//92
f  114//93 113//93 115//93
f  114//93 115//93 116//93
f  116//94 115//94 97//94
f  116//94 97//94 99//94
f  117//84 102//84 118//84
f  118//84 102//84 101//84
f  119//95 120//95 121//95
f  121//95 120//95 122//95
f  121//96 122//96 123//96
f  121//96 123//96 124//96
f  124//83 123//83 125//83
f  124//83 125//83 126//83
f  126//97 125//97 127//97
f  126//97 127//97 128//97
f  128//98 127//98 117//98
f  128//98 117//98 118//98
f  61//37 120//37 62//37
f  62//37 120//37 119//37
f  129//37 55//37 130//37
f  130//37 55//37 56//37
f  100//99 98//99 131//99
f  131//99 98//99 132//99
f  131//100 132//100 133//100
f  131//100 133//100 134//100
f  134//77 133//77 135//77
f  134//77 135//77 136//77
f  136//101 135//101 137//101
f  136//101 137//101 138//101
f  138//102 137//102 129//102
f  138//102 129//102 130//102
f  55//103 129//103 53//103
f  53//103 129//103 137//103
f  53//103 137//103 51//103
f  51//103 137//103 135//103
f  51//103 135//103 47//103
f  47//103 135//103 123//103
f  47//103 123//103 45//103
f  45//103 123//103 57//103
f  57//103 123//103 122//103
f  57//103 122//103 59//103
f  59//103 122//103 120//103
f  59//103 120//103 61//103
f  135//103 133//103 123//103
f  123//103 133//103 125//103
f  125//103 133//103 110//103
f  125//103 110//103 106//103
f  110//103 133//103 113//103
f  113//103 133//103 132//103
f  113//103 132//103 115//103
f  115//103 132//103 98//103
f  115//103 98//103 97//103
f  106//103 105//103 125//103
f  125//103 105//103 127//103
f  127//103 105//103 104//103
f  127//103 104//103 117//103
f  117//103 104//103 102//103
f  90//76 136//76 50//76
f  50//76 136//76 138//76
f  50//76 138//76 52//76
f  52//76 138//76 54//76
f  54//76 138//76 130//76
f  54//76 130//76 56//76
f  96//76 109//76 90//76
f  90//76 109//76 111//76
f  90//76 111//76 112//76
f  43//76 124//76 96//76
f  96//76 124//76 126//76
f  96//76 126//76 108//76
f  108//76 126//76 128//76
f  108//76 128//76 103//76
f  103//76 128//76 118//76
f  103//76 118//76 101//76
f  124//76 43//76 121//76
f  121//76 43//76 58//76
f  121//76 58//76 60//76
f  62//76 119//76 60//76
f  60//76 119//76 121//76
f  108//76 107//76 96//76
f  96//76 107//76 109//76
f  112//76 114//76 90//76
f  90//76 114//76 134//76
f  90//76 134//76 136//76
f  134//76 114//76 131//76
f  131//76 114//76 116//76
f  131//76 116//76 100//76
f  100//76 116//76 99//76

