# File produced by Open Asset Import Library (http://www.assimp.sf.net)
# (assimp v5.0.639693989)

mtllib a16aqjlr0npn.mtl

# 180 vertex positions
v  -0.2557351 2.5207067 0.27596557
v  -0.23663381 2.4876223 0
v  -0.23 2.45 0.27596557
v  -0.23663381 2.4123778 0
v  -0.2557351 2.3792934 0.27596557
v  -0.285 2.3547373 0
v  -0.32089871 2.3416712 0.27596557
v  -0.3591013 2.3416712 0
v  -0.39500001 2.3547373 0.27596557
v  -0.42426488 2.3792934 0
v  -0.4433662 2.4123778 0.27596557
v  -0.44999999 2.45 0
v  -0.4433662 2.4876223 0.27596557
v  -0.42426488 2.5207067 0
v  -0.39500001 2.5452628 0.27596557
v  -0.3591013 2.5583289 0
v  -0.32089871 2.5583289 0.27596557
v  -0.285 2.5452628 0
v  -0.1 1.6286062 0.41697779
v  0 1.5643275 0.34037334
v  -0.1 1.95 0.30000001
v  0 1.95 0.2
v  -0.1 2.2713938 0.41697779
v  0 2.3356726 0.34037334
v  -0.1 2.4424038 0.71317589
v  0 2.5408847 0.69581109
v  -0.1 2.3830128 1.05
v  0 2.4696152 1.1
v  -0.1 2.1210101 1.2698463
v  0 2.1552122 1.3638155
v  -0.1 1.7789899 1.2698463
v  0 1.7447879 1.3638155
v  -0.1 1.5169873 1.05
v  0 1.4303848 1.1
v  -0.1 1.4575962 0.71317589
v  0 1.3591154 0.69581109
v  -0.69999999 1.6286062 0.41697779
v  -0.69999999 1.95 0.30000001
v  -0.69999999 2.2713938 0.41697779
v  -0.34361452 2.3000464 0.4429732
v  -0.4003388 2.3126872 0.45582843
v  -0.69999999 1.4575962 0.71317589
v  -0.69999999 1.5169873 1.05
v  -0.69999999 1.7789899 1.2698463
v  -0.69999999 2.1210101 1.2698463
v  -0.34361452 2.3000464 1.1570268
v  -0.28722551 2.309593 1.1474093
v  -0.4003388 2.3126872 1.1441716
v  -0.69999999 2.3830128 1.05
v  -0.44186577 2.339824 1.1130972
v  -0.47996131 2.3960061 1.0259833
v  -0.49000001 2.45 0.80000001
v  -0.69999999 2.4424038 0.71317589
v  -0.47996131 2.3960061 0.57401669
v  -0.44186577 2.339824 0.48690277
v  -0.20069401 2.3943648 0.57079232
v  -0.19 2.45 0.80000001
v  -0.20069401 2.3943648 1.0292077
v  -0.24267134 2.3358915 1.1179237
v  -0.24267134 2.3358915 0.48207629
v  -0.28722551 2.309593 0.45259061
v  0 0 1.65
v  0 3.9000001 1.65
v  0 3.1473939 1.0819077
v  0 3.3526061 1.0819077
v  0 0 0
v  0 0.35455766 0.74790555
v  0 0.39019239 0.94999999
v  0 0.54739398 1.0819077
v  0 3.9000001 0
v  0 0.64999998 0.5
v  0 0.84283626 0.57018667
v  0 0.94544232 0.74790555
v  0 0.90980762 0.94999999
v  0 0.75260603 1.0819077
v  0 3.5454423 0.74790555
v  0 3.4428363 0.57018667
v  0 3.25 0.5
v  0 3.0571637 0.57018667
v  0 2.9545577 0.74790555
v  0 2.9901924 0.94999999
v  0 3.5098076 0.94999999
v  0 0.45716372 0.57018667
v  -0.19 2.45 0.30000001
v  -0.22509333 2.5464182 0.30000001
v  -0.31395277 2.5977211 0.30000001
v  -0.41499999 2.5799038 0.30000001
v  -0.4809539 2.501303 0.30000001
v  -0.4809539 2.3986969 0.30000001
v  -0.41499999 2.3200963 0.30000001
v  -0.31395277 2.3022788 0.30000001
v  -0.22509333 2.3535819 0.30000001
v  -0.19 2.45 1.8
v  -0.22509333 2.5464182 1.8
v  -0.31395277 2.5977211 1.8
v  -0.41499999 2.5799038 1.8
v  -0.4809539 2.501303 1.8
v  -0.22509333 2.3535819 1.8
v  -0.31395277 2.3022788 1.8
v  -0.41499999 2.3200963 1.8
v  -0.4809539 2.3986969 1.8
v  -1.0004303 1.95 0.80000001
v  -0.66252649 0.50044453 1.0600637
v  -0.68105 0.50961727 1.8
v  -0.60000002 0.48789999 1.0524353
v  -0.57185161 0.49036267 1.8
v  -0.5374735 0.50044453 1.0600637
v  -0.47582421 0.54580414 1.8
v  -0.48554423 0.53521198 1.0771708
v  -0.45054117 0.58724284 1.0933625
v  -0.43790001 0.64999998 1.8
v  -0.43790001 0.64999998 1.1
v  -0.45054117 0.71275717 1.0933625
v  -0.47582421 0.75419587 1.8
v  -0.48554423 0.76478803 1.0771708
v  -0.5374735 0.79955548 1.0600637
v  -0.57185161 0.80963731 1.8
v  -0.60000002 0.81209999 1.0524353
v  -0.68105 0.79038274 1.8
v  -0.66252649 0.79955548 1.0600637
v  -0.71445578 0.76478803 1.0771708
v  -0.75232416 0.70544147 1.8
v  -0.74945885 0.71275717 1.0933625
v  -0.76209998 0.64999998 1.1
v  -0.75232416 0.59455854 1.8
v  -0.74945885 0.58724284 1.0933625
v  -0.71445578 0.53521198 1.0771708
v  -0.66252649 3.1004446 1.0600637
v  -0.68105 3.1096172 1.8
v  -0.60000002 3.0878999 1.0524353
v  -0.57185161 3.0903625 1.8
v  -0.5374735 3.1004446 1.0600637
v  -0.47582421 3.1458042 1.8
v  -0.48554423 3.1352119 1.0771708
v  -0.45054117 3.1872427 1.0933625
v  -0.43790001 3.25 1.8
v  -0.43790001 3.25 1.1
v  -0.45054117 3.3127573 1.0933625
v  -0.47582421 3.3541958 1.8
v  -0.48554423 3.3647881 1.0771708
v  -0.5374735 3.3995554 1.0600637
v  -0.57185161 3.4096375 1.8
v  -0.60000002 3.4121001 1.0524353
v  -0.68105 3.3903828 1.8
v  -0.66252649 3.3995554 1.0600637
v  -0.71445578 3.3647881 1.0771708
v  -0.75232416 3.3054414 1.8
v  -0.74945885 3.3127573 1.0933625
v  -0.76209998 3.25 1.1
v  -0.75232416 3.1945586 1.8
v  -0.74945885 3.1872427 1.0933625
v  -0.71445578 3.1352119 1.0771708
v  -1.5 0.84283626 0.57018667
v  -1.6802582 0.64999998 0.80000001
v  -1.5 0.64999998 0.5
v  -1.5 0.90980762 0.94999999
v  -1.5 0.94544232 0.74790555
v  -1.5 0.54739398 1.0819077
v  -1.5 0.75260603 1.0819077
v  -1.5 0.35455766 0.74790555
v  -1.5 0.39019239 0.94999999
v  -1.5 0.45716372 0.57018667
v  -1.5 3.4428363 0.57018667
v  -1.6802582 3.25 0.80000001
v  -1.5 3.25 0.5
v  -1.5 3.5098076 0.94999999
v  -1.5 3.5454423 0.74790555
v  -1.5 3.1473939 1.0819077
v  -1.5 3.3526061 1.0819077
v  -1.5 2.9545577 0.74790555
v  -1.5 2.9901924 0.94999999
v  -1.5 3.0571637 0.57018667
v  -1.8 0.15000001 1.8
v  -1.8 0 1.65
v  -0.15000001 0.15000001 1.8
v  -0.15000001 3.75 1.8
v  -1.8 3.9000001 1.65
v  -1.8 3.75 1.8
v  -1.8 0 0
v  -1.8 3.9000001 0

# 0 UV coordinates

# 248 vertex normals
vn -0.93942124 -0.3419213 -0.024031624
vn -0.99971122 0 0.024031576
vn -0.93942124 0.3419213 -0.024031624
vn -0.76582307 0.64260215 0.024031593
vn -0.49985543 0.86577541 -0.024031624
vn -0.17359796 0.98452336 0.024031587
vn 0.17359796 0.98452336 -0.024031587
vn 0.49985561 0.86577529 0.02403165
vn 0.76582307 0.64260215 -0.024031509
vn 0.93942118 0.34192148 0.024031701
vn 0.99971122 0 -0.024031522
vn 0.93942118 -0.34192148 0.024031701
vn 0.76582307 -0.64260215 -0.024031509
vn 0.49985561 -0.86577529 0.02403165
vn 0.17359796 -0.98452336 -0.024031587
vn -0.17359796 -0.98452336 0.024031587
vn -0.49985543 -0.86577541 -0.024031624
vn -0.76582307 -0.64260215 0.024031593
vn 0.68479103 0.24924356 0.68479109
vn 0.68479109 0.24924356 0.68479103
vn 0.68479109 -0.24924362 0.68479103
vn 0.68479121 -0.24924353 0.68479097
vn 0.68479133 -0.63110667 0.36436954
vn 0.68479156 -0.63110644 0.36436954
vn 0.68479174 -0.7176677 -0.12654386
vn 0.68479079 -0.71766847 -0.12654449
vn 0.68479103 -0.46842468 -0.55824685
vn 0.68479115 -0.46842468 -0.55824673
vn 0.68479091 0 -0.72873956
vn 0.68479085 0.46842495 -0.55824685
vn 0.68479133 0.46842447 -0.55824667
vn 0.68479121 0.71766812 -0.12654419
vn 0.68479127 0.71766812 -0.12654421
vn 0.68479121 0.63110679 0.3643696
vn 0.68479097 0.63110691 0.36436981
vn 0 0.34202012 0.93969262
vn 0 -0.34202021 0.93969262
vn 0 -0.67192978 0.74061483
vn 0.0046112472 -0.70277613 0.71139616
vn 0 0.86602545 0.49999991
vn 0 0.98480779 -0.1736481
vn 0 0.64278775 -0.76604432
vn 0 0 -1
vn -0 -0.53312773 -0.84603477
vn -0.042475298 -0.57337731 -0.81818968
vn 0.04773809 -0.59880966 -0.79946738
vn 0.089524701 -0.64020658 -0.76296848
vn 0.049263258 -0.71875715 -0.69351369
vn -0.0091165481 -0.84216225 -0.53914708
vn 0.031887636 -0.97180748 -0.23360939
vn 0.10680305 -0.97917491 -0.17265452
vn -0.059729565 -0.97148317 0.22946206
vn 0.13242716 -0.85839814 0.49559629
vn 0.066674747 -0.8249827 0.56121123
vn 0.01556029 -0.7427299 0.66941029
vn 0.13813981 -0.96392381 0.22752656
vn -0.24312052 -0.95525974 -0.16843764
vn -0.060120691 -0.96937793 -0.23810056
vn 0.017848041 -0.83867878 -0.54433388
vn -0.19180052 -0.57045782 -0.79861784
vn -0.14494254 -0.6359998 -0.75795507
vn -0.28192893 -0.83089536 0.47971758
vn -0.10058813 -0.80818492 0.58027506
vn -0.019526238 -0.73130947 0.68176621
vn -0.0049988641 -0.69490123 0.71908784
vn 1 0 0
vn -0.50622058 0.18424919 0.8424921
vn -0.50622058 -0.18424924 0.8424921
vn -0.5062207 -0.18424922 0.84249204
vn -0.2693539 -0.46653563 0.8424921
vn -0.26935458 -0.46653605 0.84249169
vn 0.093545437 -0.53052527 0.84249163
vn 0.09354575 -0.53052449 0.8424921
vn 0.41267511 -0.34627521 0.84249198
vn 0.41267535 -0.3462759 0.84249157
vn 0.53870875 0 0.84249204
vn 0.41267398 0.3462753 0.84249252
vn 0.41267478 0.34627542 0.84249204
vn 0.093546487 0.53052413 0.84249222
vn 0.093545482 0.530523 0.84249312
vn -0.26935422 0.46653402 0.84249294
vn -0.26935419 0.46653536 0.84249216
vn -0.50622064 0.18424927 0.84249204
vn -0.98202306 0.18876113 0
vn -0.93969262 -0.34202018 0
vn -0.4999992 -0.86602587 0
vn 0.17364731 -0.98480791 0
vn 0.76604474 -0.64278728 0
vn 0.98480767 -0.17364855 0
vn 0.99983639 0 0.018089255
vn 0.98185217 0.18964042 -0.0016944214
vn 0.82944769 0.55857891 0.0024805537
vn -0.93962884 0.34199697 -0.011648628
vn -0.80831742 0.58872068 0.0055622696
vn -0.51272994 0.85850221 -0.0090525001
vn -0.49997193 0.86597461 -0.010770861
vn -0.166217 0.98608005 0.0042444174
vn 0.17363822 0.98474318 -0.011429198
vn 0.21882904 0.97574395 -0.0061313077
vn 0.5455972 0.83804315 0.0027293172
vn 0.76599312 0.64274591 -0.01149959
vn 0.82830477 0.5602771 -0.00088553276
vn 0.98268521 0.18528207 0.00061607728
vn 0.76536047 0.64221501 0.042228248
vn 0.54124546 0.84079337 -0.010946564
vn 0.22291188 0.97450864 0.0253617
vn 0.17342061 0.98350906 0.051334508
vn -0.16381119 0.98631662 -0.018585011
vn -0.49947125 0.86510742 0.046018064
vn -0.52374351 0.8512693 0.032145567
vn -0.79858822 0.60158885 -0.018647287
vn -0.93917644 0.34183231 0.033141077
vn 0.99995911 0 -0.0090457378
vn 0.84249216 -0.18424922 0.50622046
vn 0.84249216 -0.53052443 -0.093545541
vn 0.84249216 0 -0.53870857
vn 0.84249216 0.53052437 -0.09354572
vn 0.84249216 0.18424916 0.50622046
vn 0.84249216 -0.46653539 0.26935428
vn 0.84249222 0.4665353 0.26935422
vn 0.84249216 -0.34627521 -0.41267473
vn 0.84249216 0.34627527 -0.41267464
vn 0.19585195 0.98060668 -0.0072533018
vn 0.17363963 0.9847607 -0.0097822109
vn -0.19719803 0.98035473 0.0041956324
vn -0.49996749 0.86596876 -0.011429856
vn -0.55525762 0.83166504 -0.0047203577
vn -0.83014596 0.55753815 0.0029931094
vn -0.93960613 0.34198883 -0.013563568
vn -0.9803102 0.19746375 0
vn -0.9803102 -0.19746357 0
vn -0.93960619 -0.34198865 -0.013563581
vn -0.83014596 -0.55753815 0.0029931094
vn -0.55525762 -0.83166504 -0.0047203577
vn -0.49996728 -0.86596888 -0.01142988
vn -0.19719757 -0.98035479 0.0041956152
vn 0.17363937 -0.9847607 -0.0097822016
vn 0.1958515 -0.98060673 -0.0072533144
vn 0.55716497 -0.83039379 0.0036539205
vn 0.76598334 -0.64273614 -0.012641476
vn 0.82936698 -0.55869901 -0.0024211486
vn 0.98034805 -0.1972663 0.0019329081
vn 0.99990249 0 -0.013964093
vn 0.98034799 0.19726647 0.0019329061
vn 0.82936698 0.55869901 -0.0024211486
vn 0.76598334 0.64273614 -0.012641476
vn 0.55716497 0.83039379 0.0036539205
vn 0.19585332 0.98060638 -0.0072531854
vn 0.17364042 0.98476052 -0.0097821616
vn -0.19719939 0.98035443 0.0041957628
vn -0.4999685 0.86596817 -0.011429736
vn -0.5552569 0.83166546 -0.004720442
vn -0.8301456 0.55753857 0.0029930528
vn -0.93960613 0.34198883 -0.013563626
vn -0.98031026 0.19746339 0
vn -0.98031026 -0.19746339 0
vn -0.93960613 -0.34198883 -0.013563626
vn -0.8301456 -0.55753857 0.0029930528
vn -0.5552569 -0.83166546 -0.004720442
vn -0.4999685 -0.86596817 -0.011429736
vn -0.19719939 -0.98035443 0.0041957628
vn 0.17364042 -0.98476052 -0.0097821616
vn 0.19585332 -0.98060638 -0.0072531854
vn 0.55716431 -0.83039427 0.0036539659
vn 0.76598376 -0.6427356 -0.012641515
vn 0.82936668 -0.55869943 -0.002421296
vn 0.98034805 -0.19726612 0.0019328601
vn 0.98034805 0.19726612 0.0019328601
vn 0.82936668 0.55869943 -0.002421296
vn 0.76598376 0.6427356 -0.012641515
vn 0.55716431 0.83039427 0.0036539659
vn 0.84249228 -0.18424915 0.50622034
vn 0.84249228 -0.53052419 -0.09354572
vn 0.84249222 0 -0.53870851
vn 0.84249222 0.53052425 -0.093545809
vn 0.84249228 0.18424918 0.50622034
vn 0.84249228 -0.46653515 0.26935425
vn 0.84249228 0.46653518 0.26935425
vn 0.84249228 -0.34627506 -0.41267467
vn 0.84249222 0.34627509 -0.4126747
vn -0.017946394 0.58327973 -0.81207311
vn -0.026099054 0.64256853 -0.76578361
vn 0 0.7236079 -0.6902113
vn 0 0.98480773 -0.1736483
vn 0 0.86602539 0.50000006
vn 0 0.34202021 0.93969262
vn 0 -0.34202018 0.93969262
vn 0 -0.86602539 0.50000006
vn 0 -0.98480773 -0.17364815
vn 0 -0.72360778 -0.69021136
vn 0.024653463 -0.60625923 -0.79488492
vn -0.0024098139 0.44438806 -0.89583117
vn 0.0018928964 0.29597548 -0.95519364
vn -0.015693575 0.10829209 -0.99399525
vn -0.041280776 0 -0.99914759
vn -0.015693584 -0.10829199 -0.99399525
vn 0.0018928964 -0.29597548 -0.95519364
vn -0.0024098139 -0.44438806 -0.89583117
vn -0.017946582 -0.58328134 -0.81207192
vn -0.026099021 -0.64256853 -0.76578361
vn 0.016052192 -0.64270467 -0.76594585
vn 0.0014686016 -0.44325852 -0.89639264
vn -0.0011622086 -0.29642409 -0.95505571
vn 0.0094890734 -0.10706458 -0.99420679
vn 0.024511233 0 -0.99969953
vn 0.0094890678 0.10706469 -0.99420679
vn -0.0011622086 0.29642409 -0.95505571
vn 0.0014686016 0.44325852 -0.89639264
vn 0.0092597734 0.5528484 -0.83323044
vn 0.017402664 0.64269018 -0.76592851
vn 0.84249228 -0.53052425 -0.093545876
vn 0.84249228 0.53052425 -0.093545876
vn 0.84249228 0.18424915 0.50622034
vn 0.84249228 0.46653515 0.26935425
vn 0.84249222 -0.34627515 -0.41267461
vn 0.84249222 0.34627515 -0.41267461
vn -0.01794572 0.58327448 -0.81207687
vn -0.026099104 0.64256871 -0.76578343
vn 0 0.7236082 -0.69021094
vn 0 0.98480773 -0.17364843
vn 0 0.34202018 0.93969262
vn 0 -0.98480773 -0.17364843
vn 0 -0.7236082 -0.69021094
vn 0.024653973 -0.60625702 -0.79488653
vn -0.0024098328 0.44438869 -0.89583081
vn 0.0018928875 0.29597577 -0.95519358
vn -0.015693609 0.10829189 -0.99399525
vn -0.015693609 -0.10829189 -0.99399525
vn 0.0018928875 -0.29597577 -0.95519358
vn -0.0024098328 -0.44438869 -0.89583081
vn -0.01794572 -0.58327448 -0.81207687
vn -0.026099104 -0.64256871 -0.76578343
vn 0.016052159 -0.64270484 -0.76594573
vn 0.0014686132 -0.44325915 -0.89639229
vn -0.0011622031 -0.29642442 -0.95505559
vn 0.0094890865 -0.10706449 -0.99420679
vn 0.0094890865 0.10706449 -0.99420679
vn -0.0011622031 0.29642442 -0.95505559
vn 0.0014686132 0.44325915 -0.89639229
vn 0.0092594419 0.55284441 -0.83323306
vn 0.017402697 0.6426903 -0.76592839
vn 0 -0.70710671 0.70710683
vn 0.70710671 0 0.70710683
vn 0 0.70710647 0.70710707
vn 0 -1 0
vn 0 0 1
vn -1 -0 -0
vn 0 1 0

# Mesh '' with 372 faces
usemtl DefaultMaterial
f  1//1 2//1 3//1
f  3//2 2//2 4//2
f  3//3 4//3 5//3
f  5//4 4//4 6//4
f  5//5 6//5 7//5
f  7//6 6//6 8//6
f  7//7 8//7 9//7
f  9//8 8//8 10//8
f  9//9 10//9 11//9
f  11//10 10//10 12//10
f  11//11 12//11 13//11
f  13//12 12//12 14//12
f  13//13 14//13 15//13
f  15//14 14//14 16//14
f  15//15 16//15 17//15
f  17//16 16//16 18//16
f  17//17 18//17 1//17
f  1//18 18//18 2//18
f  19//19 20//19 21//19
f  21//20 20//20 22//20
f  21//21 22//21 23//21
f  23//22 22//22 24//22
f  23//23 24//23 25//23
f  25//24 24//24 26//24
f  25//25 26//25 27//25
f  27//26 26//26 28//26
f  27//27 28//27 29//27
f  29//28 28//28 30//28
f  29//29 30//29 31//29
f  31//29 30//29 32//29
f  31//30 32//30 33//30
f  33//31 32//31 34//31
f  33//32 34//32 35//32
f  35//33 34//33 36//33
f  35//34 36//34 19//34
f  19//35 36//35 20//35
f  37//36 21//36 38//36
f  38//37 21//37 23//37
f  38//37 23//37 39//37
f  39//38 23//38 40//38
f  39//39 40//39 41//39
f  21//36 37//36 19//36
f  19//40 37//40 42//40
f  19//40 42//40 35//40
f  35//41 42//41 43//41
f  35//41 43//41 33//41
f  33//42 43//42 44//42
f  33//42 44//42 31//42
f  31//43 44//43 45//43
f  31//43 45//43 29//43
f  29//44 45//44 46//44
f  29//45 46//45 47//45
f  46//46 45//46 48//46
f  48//47 45//47 49//47
f  48//48 49//48 50//48
f  50//49 49//49 51//49
f  51//50 49//50 52//50
f  52//51 49//51 53//51
f  52//52 53//52 54//52
f  54//53 53//53 39//53
f  54//54 39//54 55//54
f  55//55 39//55 41//55
f  56//56 25//56 57//56
f  57//57 25//57 27//57
f  57//58 27//58 58//58
f  58//59 27//59 59//59
f  59//60 27//60 47//60
f  47//61 27//61 29//61
f  25//62 56//62 23//62
f  23//63 56//63 60//63
f  23//64 60//64 61//64
f  61//65 40//65 23//65
f  62//66 30//66 63//66
f  63//66 30//66 64//66
f  63//66 64//66 65//66
f  66//66 67//66 62//66
f  62//66 67//66 68//66
f  62//66 68//66 69//66
f  70//66 22//66 66//66
f  66//66 22//66 20//66
f  66//66 20//66 71//66
f  71//66 20//66 72//66
f  72//66 20//66 36//66
f  72//66 36//66 73//66
f  73//66 36//66 74//66
f  74//66 36//66 34//66
f  74//66 34//66 75//66
f  75//66 34//66 32//66
f  75//66 32//66 62//66
f  62//66 32//66 30//66
f  63//66 76//66 70//66
f  70//66 76//66 77//66
f  70//66 77//66 78//66
f  70//66 78//66 24//66
f  24//66 78//66 79//66
f  24//66 79//66 26//66
f  26//66 79//66 80//66
f  26//66 80//66 81//66
f  26//66 81//66 28//66
f  28//66 81//66 64//66
f  28//66 64//66 30//66
f  65//66 82//66 63//66
f  63//66 82//66 76//66
f  71//66 83//66 66//66
f  66//66 83//66 67//66
f  69//66 75//66 62//66
f  24//66 22//66 70//66
f  5//67 84//67 3//67
f  3//68 84//68 85//68
f  3//69 85//69 1//69
f  1//70 85//70 86//70
f  1//71 86//71 17//71
f  17//72 86//72 87//72
f  17//73 87//73 15//73
f  15//74 87//74 88//74
f  15//75 88//75 13//75
f  13//76 88//76 89//76
f  13//76 89//76 11//76
f  11//77 89//77 90//77
f  11//78 90//78 9//78
f  9//79 90//79 91//79
f  9//80 91//80 7//80
f  7//81 91//81 92//81
f  7//82 92//82 5//82
f  5//83 92//83 84//83
f  58//84 93//84 57//84
f  57//85 93//85 94//85
f  57//85 94//85 85//85
f  85//86 94//86 95//86
f  85//86 95//86 86//86
f  86//87 95//87 96//87
f  86//87 96//87 87//87
f  87//88 96//88 97//88
f  87//88 97//88 88//88
f  88//89 97//89 52//89
f  88//90 52//90 89//90
f  89//91 52//91 54//91
f  89//92 54//92 55//92
f  93//93 58//93 98//93
f  98//94 58//94 59//94
f  98//95 59//95 47//95
f  98//96 47//96 99//96
f  99//97 47//97 46//97
f  99//98 46//98 100//98
f  100//99 46//99 48//99
f  100//100 48//100 50//100
f  100//101 50//101 101//101
f  101//102 50//102 51//102
f  101//103 51//103 52//103
f  89//104 55//104 90//104
f  90//105 55//105 41//105
f  90//106 41//106 40//106
f  90//107 40//107 91//107
f  91//108 40//108 61//108
f  91//109 61//109 92//109
f  92//110 61//110 60//110
f  92//111 60//111 56//111
f  92//112 56//112 84//112
f  84//84 56//84 57//84
f  84//85 57//85 85//85
f  97//113 101//113 52//113
f  39//114 102//114 38//114
f  49//115 102//115 53//115
f  44//116 102//116 45//116
f  42//117 102//117 43//117
f  38//118 102//118 37//118
f  53//119 102//119 39//119
f  37//120 102//120 42//120
f  45//121 102//121 49//121
f  43//122 102//122 44//122
f  103//123 104//123 105//123
f  105//124 104//124 106//124
f  105//125 106//125 107//125
f  107//126 106//126 108//126
f  107//127 108//127 109//127
f  109//128 108//128 110//128
f  110//129 108//129 111//129
f  110//130 111//130 112//130
f  112//131 111//131 113//131
f  113//132 111//132 114//132
f  113//133 114//133 115//133
f  115//134 114//134 116//134
f  116//135 114//135 117//135
f  116//136 117//136 118//136
f  118//137 117//137 119//137
f  118//138 119//138 120//138
f  120//139 119//139 121//139
f  121//140 119//140 122//140
f  121//141 122//141 123//141
f  123//142 122//142 124//142
f  124//143 122//143 125//143
f  124//144 125//144 126//144
f  126//145 125//145 127//145
f  127//146 125//146 104//146
f  127//147 104//147 103//147
f  128//148 129//148 130//148
f  130//149 129//149 131//149
f  130//150 131//150 132//150
f  132//151 131//151 133//151
f  132//152 133//152 134//152
f  134//153 133//153 135//153
f  135//154 133//154 136//154
f  135//155 136//155 137//155
f  137//156 136//156 138//156
f  138//157 136//157 139//157
f  138//158 139//158 140//158
f  140//159 139//159 141//159
f  141//160 139//160 142//160
f  141//161 142//161 143//161
f  143//162 142//162 144//162
f  143//163 144//163 145//163
f  145//164 144//164 146//164
f  146//165 144//165 147//165
f  146//166 147//166 148//166
f  148//167 147//167 149//167
f  149//143 147//143 150//143
f  149//168 150//168 151//168
f  151//169 150//169 152//169
f  152//170 150//170 129//170
f  152//171 129//171 128//171
f  153//172 154//172 155//172
f  156//173 154//173 157//173
f  158//174 154//174 159//174
f  160//175 154//175 161//175
f  155//176 154//176 162//176
f  157//177 154//177 153//177
f  162//178 154//178 160//178
f  159//179 154//179 156//179
f  161//180 154//180 158//180
f  107//181 69//181 105//181
f  105//182 69//182 68//182
f  105//183 68//183 161//183
f  161//184 68//184 67//184
f  161//184 67//184 160//184
f  160//185 67//185 83//185
f  160//185 83//185 162//185
f  162//186 83//186 71//186
f  162//186 71//186 155//186
f  155//187 71//187 72//187
f  155//187 72//187 153//187
f  153//188 72//188 73//188
f  153//188 73//188 157//188
f  157//189 73//189 74//189
f  157//189 74//189 156//189
f  156//190 74//190 118//190
f  156//191 118//191 120//191
f  107//192 109//192 69//192
f  69//193 109//193 110//193
f  69//194 110//194 112//194
f  69//195 112//195 75//195
f  75//196 112//196 113//196
f  75//197 113//197 115//197
f  115//198 116//198 75//198
f  75//199 116//199 118//199
f  75//200 118//200 74//200
f  156//201 120//201 159//201
f  159//202 120//202 121//202
f  159//203 121//203 123//203
f  123//204 124//204 159//204
f  159//205 124//205 158//205
f  158//206 124//206 126//206
f  158//207 126//207 127//207
f  127//208 103//208 158//208
f  158//209 103//209 105//209
f  158//210 105//210 161//210
f  163//172 164//172 165//172
f  166//211 164//211 167//211
f  168//174 164//174 169//174
f  170//212 164//212 171//212
f  165//213 164//213 172//213
f  167//177 164//177 163//177
f  172//214 164//214 170//214
f  169//215 164//215 166//215
f  171//216 164//216 168//216
f  132//217 64//217 130//217
f  130//218 64//218 81//218
f  130//219 81//219 171//219
f  171//220 81//220 80//220
f  171//220 80//220 170//220
f  170//185 80//185 79//185
f  170//185 79//185 172//185
f  172//221 79//221 78//221
f  172//221 78//221 165//221
f  165//187 78//187 77//187
f  165//187 77//187 163//187
f  163//188 77//188 76//188
f  163//188 76//188 167//188
f  167//222 76//222 82//222
f  167//222 82//222 166//222
f  166//223 82//223 143//223
f  166//224 143//224 145//224
f  132//225 134//225 64//225
f  64//226 134//226 135//226
f  64//227 135//227 137//227
f  64//195 137//195 65//195
f  65//228 137//228 138//228
f  65//229 138//229 140//229
f  140//230 141//230 65//230
f  65//231 141//231 143//231
f  65//232 143//232 82//232
f  166//233 145//233 169//233
f  169//234 145//234 146//234
f  169//235 146//235 148//235
f  148//236 149//236 169//236
f  169//205 149//205 168//205
f  168//237 149//237 151//237
f  168//238 151//238 152//238
f  152//239 128//239 168//239
f  168//240 128//240 130//240
f  168//241 130//241 171//241
f  173//242 174//242 175//242
f  175//242 174//242 62//242
f  175//243 62//243 176//243
f  176//243 62//243 63//243
f  63//244 177//244 176//244
f  176//244 177//244 178//244
f  174//245 179//245 62//245
f  62//245 179//245 66//245
f  98//246 175//246 93//246
f  93//246 175//246 176//246
f  93//246 176//246 94//246
f  94//246 176//246 136//246
f  94//246 136//246 95//246
f  95//246 136//246 133//246
f  95//246 133//246 96//246
f  96//246 133//246 131//246
f  96//246 131//246 97//246
f  97//246 131//246 129//246
f  97//246 129//246 101//246
f  101//246 129//246 150//246
f  101//246 150//246 122//246
f  122//246 150//246 173//246
f  122//246 173//246 125//246
f  125//246 173//246 104//246
f  104//246 173//246 175//246
f  104//246 175//246 106//246
f  106//246 175//246 108//246
f  108//246 175//246 111//246
f  111//246 175//246 98//246
f  111//246 98//246 114//246
f  114//246 98//246 99//246
f  114//246 99//246 100//246
f  114//246 100//246 117//246
f  117//246 100//246 101//246
f  117//246 101//246 119//246
f  119//246 101//246 122//246
f  173//246 150//246 178//246
f  178//246 150//246 147//246
f  178//246 147//246 144//246
f  178//246 144//246 176//246
f  176//246 144//246 142//246
f  176//246 142//246 139//246
f  139//246 136//246 176//246
f  178//247 177//247 173//247
f  173//247 177//247 174//247
f  174//247 177//247 179//247
f  179//247 177//247 180//247
f  10//43 179//43 12//43
f  12//43 179//43 180//43
f  12//43 180//43 14//43
f  14//43 180//43 70//43
f  14//43 70//43 16//43
f  16//43 70//43 18//43
f  18//43 70//43 2//43
f  2//43 70//43 4//43
f  4//43 70//43 66//43
f  4//43 66//43 6//43
f  6//43 66//43 8//43
f  8//43 66//43 10//43
f  10//43 66//43 179//43
f  63//248 70//248 177//248
f  177//248 70//248 180//248

