# File produced by Open Asset Import Library (http://www.assimp.sf.net)
# (assimp v5.0.639693989)

mtllib 2q4fjri489c7.mtl

# 62 vertex positions
v  -4.9499998 0.23096988 0.095670857
v  -4.9499998 0.25 0
v  -5 0.2 0
v  -4.9499998 0.23096988 -0.095670857
v  -5 0.1827091 -0.081347331
v  -4.9499998 0.17677669 -0.17677669
v  -5 0.13382612 -0.14862897
v  -4.9499998 0.095670857 -0.23096988
v  -5 0.061803401 -0.1902113
v  -4.9499998 0 -0.25
v  -5 -0.020905692 -0.19890438
v  -4.9499998 -0.095670857 -0.23096988
v  -5 -0.1 -0.17320508
v  -4.9499998 -0.17677669 -0.17677669
v  -5 -0.16180339 -0.11755705
v  -4.9499998 -0.23096988 -0.095670857
v  -5 -0.19562952 -0.041582339
v  -4.9499998 -0.25 0
v  -5 -0.19562952 0.041582339
v  -4.9499998 -0.23096988 0.095670857
v  -5 -0.16180339 0.11755705
v  -4.9499998 -0.17677669 0.17677669
v  -5 -0.1 0.17320508
v  -4.9499998 -0.095670857 0.23096988
v  -5 -0.020905692 0.19890438
v  -4.9499998 0 0.25
v  -5 0.061803401 0.1902113
v  -4.9499998 0.095670857 0.23096988
v  -5 0.13382612 0.14862897
v  -4.9499998 0.17677669 0.17677669
v  -5 0.1827091 0.081347331
v  4.9499998 0.23096988 -0.095670857
v  4.9499998 0.25 0
v  4.9499998 0.23096988 0.095670857
v  4.9499998 0.17677669 0.17677669
v  4.9499998 0.095670857 0.23096988
v  4.9499998 0 0.25
v  4.9499998 -0.095670857 0.23096988
v  4.9499998 -0.17677669 0.17677669
v  4.9499998 -0.23096988 0.095670857
v  4.9499998 -0.25 0
v  4.9499998 -0.23096988 -0.095670857
v  4.9499998 -0.17677669 -0.17677669
v  4.9499998 -0.095670857 -0.23096988
v  4.9499998 0 -0.25
v  4.9499998 0.095670857 -0.23096988
v  4.9499998 0.17677669 -0.17677669
v  5 0.2 0
v  5 0.1827091 0.081347331
v  5 0.13382612 0.14862897
v  5 0.061803401 0.1902113
v  5 -0.020905692 0.19890438
v  5 -0.1 0.17320508
v  5 -0.16180339 0.11755705
v  5 -0.19562952 0.041582339
v  5 -0.19562952 -0.041582339
v  5 -0.16180339 -0.11755705
v  5 -0.1 -0.17320508
v  5 -0.020905692 -0.19890438
v  5 0.061803401 -0.1902113
v  5 0.13382612 -0.14862897
v  5 0.1827091 -0.081347331

# 0 UV coordinates

# 80 vertex normals
vn -0.70021313 0.70021582 0.13928165
vn -0.70021313 0.70021582 -0.13928165
vn -0.7084043 0.69038332 -0.14674547
vn -0.69316858 0.59930295 -0.40044141
vn -0.71607029 0.56471664 -0.41029072
vn -0.68695867 0.40373093 -0.60422605
vn -0.72236931 0.34575367 -0.59886307
vn -0.68165934 0.14274172 -0.71761084
vn -0.72739851 0.071729094 -0.68245614
vn -0.67733663 -0.14352278 -0.72153747
vn -0.73123419 -0.21078871 -0.64874083
vn -0.67404521 -0.41039422 -0.61419839
vn -0.73393404 -0.45448738 -0.50475937
vn -0.67182714 -0.6158762 -0.41151527
vn -0.73553818 -0.61891174 -0.27555734
vn -0.67071086 -0.727467 -0.14470224
vn -0.73607028 -0.6769051 0
vn -0.67071086 -0.727467 0.14470224
vn -0.73553818 -0.61891174 0.27555734
vn -0.67182714 -0.6158762 0.41151527
vn -0.73393404 -0.45448738 0.50475937
vn -0.67404521 -0.41039422 0.61419839
vn -0.73123419 -0.21078871 0.64874083
vn -0.67733663 -0.14352278 0.72153747
vn -0.72739851 0.071729094 0.68245614
vn -0.68165934 0.14274172 0.71761084
vn -0.72236931 0.34575367 0.59886307
vn -0.68695867 0.40373093 0.60422605
vn -0.71607029 0.56471664 0.41029072
vn -0.69316858 0.59930295 0.40044141
vn -0.7084043 0.69038332 0.14674547
vn 0 0.98078525 -0.1950904
vn 0 0.98078525 0.1950904
vn 0 0.83146966 0.55557019
vn 0 0.55557019 0.83146966
vn 0 0.1950904 0.98078525
vn 0 -0.1950904 0.98078525
vn 0 -0.55557019 0.83146966
vn 0 -0.83146966 0.55557019
vn 0 -0.98078525 0.1950904
vn -0 -0.98078525 -0.1950904
vn -0 -0.83146966 -0.55557019
vn -0 -0.55557019 -0.83146966
vn -0 -0.1950904 -0.98078525
vn 0 0.1950904 -0.98078525
vn 0 0.55557019 -0.83146966
vn 0 0.83146966 -0.55557019
vn -1 0 0
vn 0.70021313 0.70021582 -0.13928165
vn 0.70021313 0.70021582 0.13928165
vn 0.7084043 0.69038332 0.14674547
vn 0.69316858 0.59930295 0.40044141
vn 0.71607029 0.56471664 0.41029072
vn 0.68695867 0.40373093 0.60422605
vn 0.72236931 0.34575367 0.59886307
vn 0.68165934 0.14274172 0.71761084
vn 0.72739851 0.071729094 0.68245614
vn 0.67733663 -0.14352278 0.72153747
vn 0.73123419 -0.21078871 0.64874083
vn 0.67404521 -0.41039422 0.61419839
vn 0.73393404 -0.45448738 0.50475937
vn 0.67182714 -0.6158762 0.41151527
vn 0.73553818 -0.61891174 0.27555734
vn 0.67071086 -0.727467 0.14470224
vn 0.73607028 -0.6769051 0
vn 0.67071086 -0.727467 -0.14470224
vn 0.73553818 -0.61891174 -0.27555734
vn 0.67182714 -0.6158762 -0.41151527
vn 0.73393404 -0.45448738 -0.50475937
vn 0.67404521 -0.41039422 -0.61419839
vn 0.73123419 -0.21078871 -0.64874083
vn 0.67733663 -0.14352278 -0.72153747
vn 0.72739851 0.071729094 -0.68245614
vn 0.68165934 0.14274172 -0.71761084
vn 0.72236931 0.34575367 -0.59886307
vn 0.68695867 0.40373093 -0.60422605
vn 0.71607029 0.56471664 -0.41029072
vn 0.69316858 0.59930295 -0.40044141
vn 0.7084043 0.69038332 -0.14674547
vn 1 0 0

# Mesh '' with 120 faces
usemtl DefaultMaterial
f  1//1 2//1 3//1
f  3//2 2//2 4//2
f  3//3 4//3 5//3
f  5//4 4//4 6//4
f  5//5 6//5 7//5
f  7//6 6//6 8//6
f  7//7 8//7 9//7
f  9//8 8//8 10//8
f  9//9 10//9 11//9
f  11//10 10//10 12//10
f  11//11 12//11 13//11
f  13//12 12//12 14//12
f  13//13 14//13 15//13
f  15//14 14//14 16//14
f  15//15 16//15 17//15
f  17//16 16//16 18//16
f  17//17 18//17 19//17
f  19//18 18//18 20//18
f  19//19 20//19 21//19
f  21//20 20//20 22//20
f  21//21 22//21 23//21
f  23//22 22//22 24//22
f  23//23 24//23 25//23
f  25//24 24//24 26//24
f  25//25 26//25 27//25
f  27//26 26//26 28//26
f  27//27 28//27 29//27
f  29//28 28//28 30//28
f  29//29 30//29 31//29
f  31//30 30//30 1//30
f  31//31 1//31 3//31
f  32//32 4//32 33//32
f  33//32 4//32 2//32
f  33//33 2//33 34//33
f  34//33 2//33 1//33
f  34//34 1//34 35//34
f  35//34 1//34 30//34
f  35//35 30//35 36//35
f  36//35 30//35 28//35
f  36//36 28//36 37//36
f  37//36 28//36 26//36
f  37//37 26//37 38//37
f  38//37 26//37 24//37
f  38//38 24//38 39//38
f  39//38 24//38 22//38
f  39//39 22//39 40//39
f  40//39 22//39 20//39
f  40//40 20//40 41//40
f  41//40 20//40 18//40
f  41//41 18//41 42//41
f  42//41 18//41 16//41
f  42//42 16//42 43//42
f  43//42 16//42 14//42
f  43//43 14//43 44//43
f  44//43 14//43 12//43
f  44//44 12//44 45//44
f  45//44 12//44 10//44
f  45//45 10//45 46//45
f  46//45 10//45 8//45
f  46//46 8//46 47//46
f  47//46 8//46 6//46
f  47//47 6//47 32//47
f  32//47 6//47 4//47
f  3//48 5//48 31//48
f  31//48 5//48 29//48
f  29//48 5//48 7//48
f  29//48 7//48 27//48
f  27//48 7//48 9//48
f  27//48 9//48 25//48
f  25//48 9//48 11//48
f  25//48 11//48 23//48
f  23//48 11//48 13//48
f  23//48 13//48 21//48
f  21//48 13//48 15//48
f  21//48 15//48 19//48
f  19//48 15//48 17//48
f  32//49 33//49 48//49
f  48//50 33//50 34//50
f  48//51 34//51 49//51
f  49//52 34//52 35//52
f  49//53 35//53 50//53
f  50//54 35//54 36//54
f  50//55 36//55 51//55
f  51//56 36//56 37//56
f  51//57 37//57 52//57
f  52//58 37//58 38//58
f  52//59 38//59 53//59
f  53//60 38//60 39//60
f  53//61 39//61 54//61
f  54//62 39//62 40//62
f  54//63 40//63 55//63
f  55//64 40//64 41//64
f  55//65 41//65 56//65
f  56//66 41//66 42//66
f  56//67 42//67 57//67
f  57//68 42//68 43//68
f  57//69 43//69 58//69
f  58//70 43//70 44//70
f  58//71 44//71 59//71
f  59//72 44//72 45//72
f  59//73 45//73 60//73
f  60//74 45//74 46//74
f  60//75 46//75 61//75
f  61//76 46//76 47//76
f  61//77 47//77 62//77
f  62//78 47//78 32//78
f  62//79 32//79 48//79
f  48//80 49//80 62//80
f  62//80 49//80 61//80
f  61//80 49//80 50//80
f  61//80 50//80 60//80
f  60//80 50//80 51//80
f  60//80 51//80 59//80
f  59//80 51//80 52//80
f  59//80 52//80 58//80
f  58//80 52//80 53//80
f  58//80 53//80 57//80
f  57//80 53//80 54//80
f  57//80 54//80 56//80
f  56//80 54//80 55//80

