# File produced by Open Asset Import Library (http://www.assimp.sf.net)
# (assimp v5.0.639693989)

mtllib o1ysnqcd9xc9.mtl

# 147 vertex positions
v  0.15834139 0.13286419 0.30000001
v  0 0 0.17580211
v  0.2067 0 0.30000001
v  -0.10335 0.17900746 0.30000001
v  0.035893079 0.20355976 0.30000001
v  -0.19423446 -0.070695564 0.30000001
v  -0.19423446 0.070695564 0.30000001
v  0.035893079 -0.20355976 0.30000001
v  -0.10335 -0.17900746 0.30000001
v  0.15834139 -0.13286419 0.30000001
v  0.15834139 0.13286419 1.5
v  0.2067 0 1.5
v  0.15834139 -0.13286419 1.5
v  0.035893079 -0.20355976 1.5
v  -0.10335 -0.17900746 1.5
v  -0.19423446 -0.070695564 1.5
v  -0.19423446 0.070695564 1.5
v  -0.10335 0.17900746 1.5
v  0.035893079 0.20355976 1.5
v  -0.24785236 0.47224322 1.3114382
v  -0.046702389 0.44434354 1.3714424
v  0 0.53333336 1.3114382
v  0.13806605 0.4249236 1.3714424
v  0.24785236 0.47224322 1.3114382
v  0.29896161 0.3320305 1.3714424
v  0.43892473 0.30296788 1.3114382
v  0.40816399 0.18172632 1.3714424
v  0.52944475 0.064286232 1.3114382
v  0.44679111 0 1.3714424
v  0.49867532 -0.1891226 1.3114382
v  0.40816399 -0.18172632 1.3714424
v  0.35366541 -0.39920574 1.3114382
v  0.29896161 -0.3320305 1.3714424
v  0.13806605 -0.4249236 1.3714424
v  0.11269302 -0.3837972 1.5
v  -0.046702389 -0.44434354 1.3714424
v  -0.11269302 -0.3837972 1.5
v  -0.22339556 -0.38693246 1.3714424
v  -0.30229983 -0.26194429 1.5
v  -0.36146161 -0.26261723 1.3714424
v  -0.39592859 -0.056925934 1.5
v  -0.43702766 -0.092893094 1.3714424
v  -0.43702766 0.092893094 1.3714424
v  -0.52944475 0.064286232 1.3114382
v  -0.43892473 0.30296788 1.3114382
v  -0.36146161 0.26261723 1.3714424
v  -0.22339556 0.38693246 1.3714424
v  -0.21625632 0.33650142 1.5
v  0 0.40000001 1.5
v  -0.49867532 -0.1891226 1.3114382
v  -0.35366541 -0.39920574 1.3114382
v  -0.12763502 -0.51783562 1.3114382
v  0.12763502 -0.51783562 1.3114382
v  0.21625632 0.33650142 1.5
v  0.3638528 0.16616601 1.5
v  0.39592859 -0.056925934 1.5
v  0.30229983 -0.26194429 1.5
v  -0.3638528 0.16616601 1.5
v  -0.2788339 0.5312736 1.2171572
v  -0.2106244 0.55537093 1.2513593
v  0 0.60000002 1.2171572
v  0.07159508 0.58963853 1.2513593
v  0.2788339 0.5312736 1.2171572
v  0.33741301 0.48882711 1.2513593
v  0.49379033 0.34083885 1.2171572
v  0.52593368 0.27603129 1.2513593
v  0.59562534 0.072322011 1.2171572
v  0.59396929 0 1.2513593
v  0.56100976 -0.21276294 1.2171572
v  0.52593368 -0.27603129 1.2513593
v  0.39787358 -0.44910645 1.2171572
v  0.33741301 -0.48882711 1.2513593
v  0.14358939 -0.58256507 1.2171572
v  0.07159508 -0.58963853 1.2513593
v  -0.14358939 -0.58256507 1.2171572
v  -0.2106244 -0.55537093 1.2513593
v  -0.39787358 -0.44910645 1.2171572
v  -0.44459239 -0.39387447 1.2513593
v  -0.56100976 -0.21276294 1.2171572
v  -0.57670957 -0.14214616 1.2513593
v  -0.59562534 0.072322011 1.2171572
v  -0.57670957 0.14214616 1.2513593
v  -0.49379033 0.34083885 1.2171572
v  -0.44459239 0.39387447 1.2513593
v  0.066295177 0.54598987 1.3037598
v  -0.19503269 0.51425892 1.3037598
v  -0.41168091 0.36471745 1.3037598
v  -0.53401798 0.13162361 1.3037598
v  -0.53401798 -0.13162361 1.3037598
v  -0.41168091 -0.36471745 1.3037598
v  -0.19503269 -0.51425892 1.3037598
v  0.066295177 -0.54598987 1.3037598
v  0.3124356 -0.45264113 1.3037598
v  0.48700082 -0.25559774 1.3037598
v  0.55000001 0 1.3037598
v  0.48700082 0.25559774 1.3037598
v  0.3124356 0.45264113 1.3037598
v  -0.2788339 0.5312736 0.2
v  0 0.60000002 0.2
v  0.2788339 0.5312736 0.2
v  0.49379033 0.34083885 0.2
v  0.59562534 0.072322011 0.2
v  0.56100976 -0.21276294 0.2
v  0.39787358 -0.44910645 0.2
v  0.14358939 -0.58256507 0.2
v  -0.14358939 -0.58256507 0.2
v  -0.39787358 -0.44910645 0.2
v  -0.56100976 -0.21276294 0.2
v  -0.59562534 0.072322011 0.2
v  -0.49379033 0.34083885 0.2
v  -0.21625632 0.33650142 0
v  -0.17730245 0.46750811 0.02679492
v  0 0.40000001 0
v  0.060268339 0.49635443 0.02679492
v  0.21625632 0.33650142 0
v  0.28403237 0.41149193 0.02679492
v  0.44272801 0.23236158 0.02679492
v  0.33398715 0.48386392 0.13159597
v  0.5205937 0.27322865 0.13159597
v  -0.37425539 0.33156133 0.02679492
v  -0.3638528 0.16616601 0
v  -0.48547092 0.11965783 0.02679492
v  -0.39592859 -0.056925934 0
v  -0.48547092 -0.11965783 0.02679492
v  -0.30229983 -0.26194429 0
v  -0.37425539 -0.33156133 0.02679492
v  -0.17730245 -0.46750811 0.02679492
v  -0.20848587 -0.54973209 0.13159597
v  0.070868157 -0.58365178 0.13159597
v  0.33398715 -0.48386392 0.13159597
v  0.5205937 -0.27322865 0.13159597
v  0.58793855 0 0.13159597
v  -0.11269302 -0.3837972 0
v  0.060268339 -0.49635443 0.02679492
v  0.11269302 -0.3837972 0
v  0.28403237 -0.41149193 0.02679492
v  0.30229983 -0.26194429 0
v  0.44272801 -0.23236158 0.02679492
v  0.39592859 -0.056925934 0
v  0.5 0 0.02679492
v  0.3638528 0.16616601 0
v  0.070868157 0.58365178 0.13159597
v  -0.20848587 0.54973209 0.13159597
v  -0.44007832 0.38987535 0.13159597
v  -0.57085413 0.1407029 0.13159597
v  -0.57085413 -0.1407029 0.13159597
v  -0.44007832 -0.38987535 0.13159597

# 0 UV coordinates

# 235 vertex normals
vn -0.50622046 -0.18424915 0.84249222
vn 0.093545713 -0.53052437 0.84249222
vn 0.53870857 0 0.84249222
vn 0.093545713 0.53052437 0.84249222
vn -0.50622046 0.18424915 0.84249222
vn -0.26935425 -0.46653527 0.84249222
vn -0.26935425 0.46653527 0.84249222
vn 0.4126747 -0.34627515 0.84249222
vn 0.4126747 0.34627515 0.84249222
vn -0.93969262 -0.34202009 0
vn -0.93969262 0.34202009 0
vn -0.49999997 0.86602539 0
vn 0.1736481 0.98480779 0
vn 0.76604444 0.64278758 0
vn 1 0 0
vn 0.76604444 -0.64278758 0
vn 0.1736481 -0.98480779 0
vn -0.49999997 -0.86602539 -0
vn -0.14922985 0.60544908 0.78176844
vn 0.056505632 0.53761536 0.84129471
vn 0.15293892 0.62049735 0.76915067
vn 0.26526493 0.45945233 0.84766626
vn 0.42782918 0.48291934 0.76403606
vn 0.42831871 0.31119177 0.84835297
vn 0.5998131 0.22747916 0.76712286
vn 0.52545696 0.11168931 0.84345746
vn 0.62369895 -0.075730853 0.77798742
vn 0.54230809 -0.11527114 0.83223462
vn 0.49902287 -0.34445059 0.79519176
vn 0.47121537 -0.34235799 0.81286353
vn 0.28716487 -0.49738416 0.81862408
vn 0.46805206 -0.81068993 0.35172305
vn 0.099001281 -0.94193459 0.32087061
vn 0 -0.90468675 0.42607737
vn -0.29684496 -0.91359508 0.27789769
vn -0.48624301 -0.75660884 0.43716219
vn -0.63879496 -0.7094537 0.29768506
vn -0.83842945 -0.38289797 0.38784686
vn -0.84648746 -0.3768805 0.37605855
vn -0.95250875 0 0.30451125
vn -0.54456162 0 0.83872086
vn -0.57814902 0.21926303 0.78591824
vn -0.51795566 0.2306087 0.82373637
vn -0.3957141 0.43948504 0.80638903
vn -0.63567436 0.70598787 0.31224871
vn -0.26229596 0.89329803 0.36499247
vn -0.17315711 0.53292298 0.82825702
vn -0.3976565 0.44886142 0.8002454
vn -0.63140738 -0.076666817 0.7716521
vn -0.48617488 -0.21645899 0.84662831
vn -0.53046197 -0.36615142 0.76455426
vn -0.35389179 -0.39303663 0.84869474
vn -0.29897186 -0.56964338 0.7655862
vn -0.16513963 -0.50824767 0.84522969
vn 0 -0.63244414 0.77460593
vn 0.057403862 -0.54616147 0.83571076
vn 0.28468275 -0.54241776 0.79040414
vn 0.25313416 0.86209571 0.43899211
vn 0.099979512 0.95124191 0.29179257
vn -0.28281564 0.87041724 0.40297541
vn 0.48001531 0.83141088 0.27989513
vn 0.68569714 0.59415996 0.420468
vn 0.76359838 0.55478674 0.33034706
vn 0.91964698 0.19547698 0.34064382
vn 0.90107131 0.12955455 0.41386729
vn 0.93819445 -0.19941936 0.28288341
vn 0.8168897 -0.37306109 0.43990523
vn 0.77501762 -0.56308329 0.28685355
vn 0.49401703 -0.76870543 0.40625006
vn -0.89154828 0.12818535 0.43440783
vn -0.87782532 0.39083302 0.27689755
vn -0.68205386 0.59100306 0.43071792
vn -0.2343563 0.95082033 -0.20252851
vn -0.10547949 0.86870295 0.4839724
vn 0.23435637 0.95082068 -0.20252682
vn 0.3103089 0.81821752 0.48397157
vn 0.64938033 0.73299897 -0.20252821
vn 0.65500957 0.58028793 0.48397151
vn 0.91563934 0.34725624 -0.20252821
vn 0.84965539 0.20942125 0.48397154
vn 0.97213644 -0.11803872 -0.20252809
vn 0.84965533 -0.20942125 0.4839716
vn 0.80592865 -0.55629247 -0.20252816
vn 0.65500963 -0.58028793 0.48397136
vn 0.4550924 -0.86710626 -0.20252803
vn 0.3103089 -0.81821752 0.48397163
vn -0 -0.97927654 -0.20252778
vn -0.10547958 -0.86870366 0.48397109
vn -0.45509234 -0.86710614 -0.20252876
vn -0.49710426 -0.72017974 0.48397157
vn -0.80592871 -0.55629253 -0.20252804
vn -0.77484781 -0.40667143 0.48397231
vn -0.97213674 -0.11803876 -0.20252672
vn -0.87508321 0 0.48397249
vn -0.91563964 0.34725633 -0.20252691
vn -0.77484804 0.40667155 0.48397186
vn -0.64938039 0.73299903 -0.20252785
vn -0.49710438 0.72017992 0.48397121
vn 0.062967889 0.25547069 0.96476412
vn -0.10355996 0.85289299 0.51171178
vn -0.062967874 0.2554706 0.96476412
vn -0.48805621 0.70707154 0.51171374
vn -0.17447834 0.19694534 0.96476412
vn -0.76074499 0.39926973 0.5117135
vn -0.24601813 0.093302384 0.96476412
vn -0.85915732 0 0.51171154
vn -0.26119781 -0.031715192 0.96476412
vn -0.76074439 -0.39926943 0.51171464
vn -0.21654037 -0.14946701 0.96476418
vn -0.4880563 -0.7070716 0.51171356
vn -0.12227613 -0.23297775 0.96476418
vn -0.1035597 -0.85289073 0.51171553
vn 0 -0.26311603 0.96476418
vn 0.30466044 -0.80332363 0.51171595
vn 0.12227614 -0.23297779 0.96476418
vn 0.64308727 -0.56972563 0.51171422
vn 0.21654022 -0.1494669 0.96476424
vn 0.83418876 -0.20560908 0.51171672
vn 0.26119769 -0.031715177 0.96476418
vn 0.83419031 0.20560946 0.51171404
vn 0.24601784 0.09330228 0.96476418
vn 0.64308727 0.56972563 0.51171428
vn 0.17447831 0.19694531 0.96476418
vn 0.3046608 0.80332452 0.51171428
vn 0.75274372 -0.18553467 0.63162786
vn 0.5802992 -0.51410025 0.63162786
vn 0.27491513 -0.72489178 0.63162774
vn 0.27491519 -0.72489184 0.63162762
vn -0.093448587 -0.76961935 0.63162762
vn -0.093448669 -0.76961899 0.63162804
vn -0.44040453 -0.63803601 0.63162798
vn -0.44040456 -0.63803613 0.6316278
vn -0.68646908 -0.36028668 0.63162786
vn -0.68646914 -0.36028674 0.63162774
vn -0.77527189 0 0.63162768
vn -0.68646914 0.36028671 0.63162774
vn -0.68646902 0.36028671 0.63162786
vn -0.44040459 0.63803613 0.6316278
vn -0.44040447 0.63803607 0.63162798
vn -0.09344855 0.76961905 0.63162798
vn -0.093448713 0.76961935 0.63162762
vn 0.27491516 0.7248919 0.63162762
vn 0.27491516 0.72489178 0.63162774
vn 0.5802992 0.51410025 0.63162786
vn 0.75274372 0.18553467 0.63162786
vn 0.75274372 0.18553469 0.63162786
vn -0.23931579 0.97094178 0
vn 0.23931579 0.97094178 0
vn 0.66312259 0.74851078 0
vn 0.93501621 0.3546049 0
vn 0.99270886 -0.12053667 0
vn 0.8229838 -0.56806481 0
vn 0.46472311 -0.88545609 0
vn 0 -1 0
vn -0.46472311 -0.88545609 0
vn -0.8229838 -0.56806481 0
vn -0.99270886 -0.12053667 0
vn -0.93501621 0.3546049 0
vn -0.66312259 0.74851078 0
vn -0.064076163 0.21822336 -0.97379303
vn -0.034969538 0.28799999 -0.95699173
vn 0.067004763 0.22819725 -0.9713065
vn 0.097064458 0.25593793 -0.96180779
vn 0.19290258 0.17089677 -0.96622092
vn 0.58029956 0.51410055 -0.63162732
vn 0.70378506 0.6234991 -0.3404929
vn 0.93489826 0.35456017 0.015884187
vn -0.16953976 0.24562079 -0.9544248
vn -0.16985229 0.14717785 -0.97441721
vn -0.2631855 0.13813041 -0.95480543
vn -0.22692893 0.032627471 -0.97336465
vn -0.28668252 -0 -0.95802563
vn -0.21997936 -0.10046122 -0.97031778
vn -0.23789242 -0.12485557 -0.96323323
vn -0.14957955 -0.21670341 -0.96471012
vn -0.44040468 -0.63803643 -0.63162744
vn -0.093448639 -0.76961946 -0.6316275
vn -0.11333419 -0.93339187 -0.34049228
vn 0 -0.99987382 0.01588466
vn 0.33341622 -0.87914646 -0.34049252
vn 0.46466449 -0.88534433 0.015884571
vn 0.70378512 -0.62349916 -0.34049267
vn 0.82287997 -0.56799316 0.015884154
vn 0.91292518 -0.22501595 -0.34049296
vn 0.99258363 -0.12052146 0.015884571
vn 0.91292524 0.22501597 -0.34049273
vn -0.13326165 -0.20735916 -0.96914577
vn -0.034085207 -0.28071687 -0.95918518
vn -0.093448758 -0.76961952 -0.63162732
vn 0.27491528 -0.72489208 -0.63162732
vn 0 -0.23158437 -0.9728148
vn 0.10475747 -0.27622277 -0.95536739
vn 0.27491528 -0.72489202 -0.63162738
vn 0.58029956 -0.51410049 -0.63162732
vn 0.1217474 -0.18944263 -0.97431469
vn 0.22385348 -0.19831689 -0.95423269
vn 0.58029956 -0.51410055 -0.63162732
vn 0.75274414 -0.18553485 -0.63162732
vn 0.20565324 -0.093918703 -0.9741078
vn 0.28452373 -0.070128798 -0.95610052
vn 0.75274408 -0.18553475 -0.63162744
vn 0.75274408 0.18553483 -0.63162744
vn 0.23204286 0.033362739 -0.97213322
vn 0.27035382 0.066636235 -0.9604522
vn 0.7527442 0.18553478 -0.63162732
vn 0.19034272 0.16493292 -0.96776378
vn 0.23928559 0.97081929 0.015884146
vn -0.11333416 0.93339157 -0.34049302
vn -0.23928559 0.97081929 0.015884809
vn -0.53412133 0.7738083 -0.3404924
vn -0.66303897 0.74841636 0.015884539
vn -0.83254749 0.43695471 -0.34049264
vn -0.93489826 0.35456017 0.015884683
vn -0.94024724 0 -0.34049255
vn -0.99258363 -0.12052146 0.01588463
vn -0.83254749 -0.43695471 -0.34049267
vn -0.82287997 -0.56799316 0.015884634
vn -0.53412133 -0.77380824 -0.34049258
vn -0.46466446 -0.88534433 0.01588496
vn 0.33341622 0.8791464 -0.34049258
vn 0.66303891 0.74841636 0.015884591
vn -0.093448736 0.76961941 -0.6316275
vn -0.093448654 0.76961952 -0.63162732
vn 0.27491528 0.72489208 -0.63162732
vn 0.27491528 0.72489208 -0.63162738
vn -0.44040474 0.63803637 -0.63162744
vn -0.44040474 0.63803649 -0.63162732
vn -0.68646938 0.36028698 -0.63162732
vn -0.68646932 0.36028689 -0.63162744
vn -0.77527207 -0 -0.63162744
vn -0.68646932 -0.36028695 -0.63162744
vn -0.68646938 -0.36028692 -0.63162732
vn -0.4404048 -0.63803643 -0.63162732
vn 0 0 -1
vn 0 0 1

# Mesh '' with 290 faces
usemtl DefaultMaterial
f  1//1 2//1 3//1
f  4//2 2//2 5//2
f  6//3 2//3 7//3
f  8//4 2//4 9//4
f  3//5 2//5 10//5
f  5//6 2//6 1//6
f  10//7 2//7 8//7
f  7//8 2//8 4//8
f  9//9 2//9 6//9
f  11//10 3//10 12//10
f  12//11 3//11 10//11
f  12//11 10//11 13//11
f  13//12 10//12 8//12
f  13//12 8//12 14//12
f  14//13 8//13 9//13
f  14//13 9//13 15//13
f  15//14 9//14 6//14
f  15//14 6//14 16//14
f  16//15 6//15 7//15
f  16//15 7//15 17//15
f  17//16 7//16 4//16
f  17//16 4//16 18//16
f  18//17 4//17 5//17
f  18//17 5//17 19//17
f  19//18 5//18 1//18
f  19//18 1//18 11//18
f  11//10 1//10 3//10
f  20//19 21//19 22//19
f  22//20 21//20 23//20
f  22//21 23//21 24//21
f  24//22 23//22 25//22
f  24//23 25//23 26//23
f  26//24 25//24 27//24
f  26//25 27//25 28//25
f  28//26 27//26 29//26
f  28//27 29//27 30//27
f  30//28 29//28 31//28
f  30//29 31//29 32//29
f  32//30 31//30 33//30
f  32//31 33//31 34//31
f  34//32 33//32 35//32
f  34//33 35//33 36//33
f  36//34 35//34 37//34
f  36//35 37//35 38//35
f  38//36 37//36 39//36
f  38//37 39//37 40//37
f  40//38 39//38 41//38
f  40//39 41//39 42//39
f  42//40 41//40 43//40
f  42//41 43//41 44//41
f  44//42 43//42 45//42
f  45//43 43//43 46//43
f  45//44 46//44 47//44
f  47//45 46//45 48//45
f  47//46 48//46 49//46
f  21//47 20//47 47//47
f  47//48 20//48 45//48
f  44//49 50//49 42//49
f  42//50 50//50 40//50
f  50//51 51//51 40//51
f  40//52 51//52 38//52
f  51//53 52//53 38//53
f  38//54 52//54 36//54
f  52//55 53//55 36//55
f  36//56 53//56 34//56
f  53//57 32//57 34//57
f  54//58 23//58 49//58
f  49//59 23//59 21//59
f  49//60 21//60 47//60
f  23//61 54//61 25//61
f  25//62 54//62 55//62
f  25//63 55//63 27//63
f  27//64 55//64 29//64
f  55//65 56//65 29//65
f  29//66 56//66 31//66
f  56//67 57//67 31//67
f  31//68 57//68 33//68
f  57//69 35//69 33//69
f  41//70 58//70 43//70
f  43//71 58//71 46//71
f  58//72 48//72 46//72
f  59//73 60//73 61//73
f  61//74 60//74 62//74
f  61//75 62//75 63//75
f  63//76 62//76 64//76
f  63//77 64//77 65//77
f  65//78 64//78 66//78
f  65//79 66//79 67//79
f  67//80 66//80 68//80
f  67//81 68//81 69//81
f  69//82 68//82 70//82
f  69//83 70//83 71//83
f  71//84 70//84 72//84
f  71//85 72//85 73//85
f  73//86 72//86 74//86
f  73//87 74//87 75//87
f  75//88 74//88 76//88
f  75//89 76//89 77//89
f  77//90 76//90 78//90
f  77//91 78//91 79//91
f  79//92 78//92 80//92
f  79//93 80//93 81//93
f  81//94 80//94 82//94
f  81//95 82//95 83//95
f  83//96 82//96 84//96
f  83//97 84//97 59//97
f  59//98 84//98 60//98
f  24//99 85//99 22//99
f  22//100 85//100 86//100
f  22//101 86//101 20//101
f  20//102 86//102 87//102
f  20//103 87//103 45//103
f  45//104 87//104 88//104
f  45//105 88//105 44//105
f  44//106 88//106 89//106
f  44//107 89//107 50//107
f  50//108 89//108 90//108
f  50//109 90//109 51//109
f  51//110 90//110 91//110
f  51//111 91//111 52//111
f  52//112 91//112 92//112
f  52//113 92//113 53//113
f  53//114 92//114 93//114
f  53//115 93//115 32//115
f  32//116 93//116 94//116
f  32//117 94//117 30//117
f  30//118 94//118 95//118
f  30//119 95//119 28//119
f  28//120 95//120 96//120
f  28//121 96//121 26//121
f  26//122 96//122 97//122
f  26//123 97//123 24//123
f  24//124 97//124 85//124
f  68//125 95//125 70//125
f  70//125 95//125 94//125
f  70//126 94//126 72//126
f  72//126 94//126 93//126
f  72//127 93//127 74//127
f  74//128 93//128 92//128
f  74//129 92//129 76//129
f  76//130 92//130 91//130
f  76//131 91//131 78//131
f  78//132 91//132 90//132
f  78//133 90//133 80//133
f  80//134 90//134 89//134
f  80//135 89//135 82//135
f  82//135 89//135 88//135
f  82//136 88//136 84//136
f  84//137 88//137 87//137
f  84//138 87//138 60//138
f  60//139 87//139 86//139
f  60//140 86//140 62//140
f  62//141 86//141 85//141
f  62//142 85//142 64//142
f  64//143 85//143 97//143
f  64//144 97//144 66//144
f  66//144 97//144 96//144
f  66//145 96//145 68//145
f  68//146 96//146 95//146
f  98//147 61//147 99//147
f  99//148 61//148 63//148
f  99//148 63//148 100//148
f  100//149 63//149 65//149
f  100//149 65//149 101//149
f  101//150 65//150 67//150
f  101//150 67//150 102//150
f  102//151 67//151 69//151
f  102//151 69//151 103//151
f  103//152 69//152 71//152
f  103//152 71//152 104//152
f  104//153 71//153 73//153
f  104//153 73//153 105//153
f  105//154 73//154 75//154
f  105//154 75//154 106//154
f  106//155 75//155 77//155
f  106//155 77//155 107//155
f  107//156 77//156 79//156
f  107//156 79//156 108//156
f  108//157 79//157 81//157
f  108//157 81//157 109//157
f  109//158 81//158 83//158
f  109//158 83//158 110//158
f  110//159 83//159 59//159
f  110//159 59//159 98//159
f  98//147 59//147 61//147
f  111//160 112//160 113//160
f  113//161 112//161 114//161
f  113//162 114//162 115//162
f  115//163 114//163 116//163
f  115//164 116//164 117//164
f  117//165 116//165 118//165
f  117//165 118//165 119//165
f  119//166 118//166 101//166
f  119//167 101//167 102//167
f  112//168 111//168 120//168
f  120//169 111//169 121//169
f  120//170 121//170 122//170
f  122//171 121//171 123//171
f  122//172 123//172 124//172
f  124//173 123//173 125//173
f  124//174 125//174 126//174
f  126//175 125//175 127//175
f  126//176 127//176 128//176
f  128//177 127//177 129//177
f  128//178 129//178 106//178
f  106//179 129//179 105//179
f  105//180 129//180 130//180
f  105//181 130//181 104//181
f  104//182 130//182 131//182
f  104//183 131//183 103//183
f  103//184 131//184 132//184
f  103//185 132//185 102//185
f  102//186 132//186 119//186
f  125//187 133//187 127//187
f  127//188 133//188 134//188
f  127//189 134//189 129//189
f  129//190 134//190 130//190
f  133//191 135//191 134//191
f  134//192 135//192 136//192
f  134//193 136//193 130//193
f  130//194 136//194 131//194
f  135//195 137//195 136//195
f  136//196 137//196 138//196
f  136//197 138//197 131//197
f  131//198 138//198 132//198
f  137//199 139//199 138//199
f  138//200 139//200 140//200
f  138//201 140//201 132//201
f  132//202 140//202 119//202
f  139//203 141//203 140//203
f  140//204 141//204 117//204
f  140//205 117//205 119//205
f  141//206 115//206 117//206
f  100//207 142//207 99//207
f  99//208 142//208 143//208
f  99//209 143//209 98//209
f  98//210 143//210 144//210
f  98//211 144//211 110//211
f  110//212 144//212 145//212
f  110//213 145//213 109//213
f  109//214 145//214 146//214
f  109//215 146//215 108//215
f  108//216 146//216 147//216
f  108//217 147//217 107//217
f  107//218 147//218 128//218
f  107//219 128//219 106//219
f  142//220 100//220 118//220
f  118//221 100//221 101//221
f  112//222 143//222 114//222
f  114//223 143//223 142//223
f  114//224 142//224 116//224
f  116//225 142//225 118//225
f  143//226 112//226 144//226
f  144//227 112//227 120//227
f  144//228 120//228 145//228
f  145//229 120//229 122//229
f  145//230 122//230 146//230
f  146//230 122//230 124//230
f  146//231 124//231 147//231
f  147//232 124//232 126//232
f  147//233 126//233 128//233
f  113//234 115//234 111//234
f  111//234 115//234 121//234
f  121//234 115//234 141//234
f  121//234 141//234 123//234
f  123//234 141//234 139//234
f  123//234 139//234 125//234
f  125//234 139//234 137//234
f  125//234 137//234 133//234
f  133//234 137//234 135//234
f  13//235 57//235 12//235
f  12//235 57//235 56//235
f  12//235 56//235 55//235
f  57//235 13//235 35//235
f  35//235 13//235 14//235
f  35//235 14//235 37//235
f  37//235 14//235 15//235
f  37//235 15//235 39//235
f  39//235 15//235 16//235
f  39//235 16//235 41//235
f  41//235 16//235 17//235
f  41//235 17//235 58//235
f  58//235 17//235 48//235
f  48//235 17//235 18//235
f  48//235 18//235 49//235
f  49//235 18//235 19//235
f  49//235 19//235 54//235
f  54//235 19//235 11//235
f  54//235 11//235 55//235
f  55//235 11//235 12//235

