# File produced by Open Asset Import Library (http://www.assimp.sf.net)
# (assimp v5.0.639693989)

mtllib 7xc47sdwrs13.mtl

# 91 vertex positions
v  5.0465641 0.29886496 -0.026071282
v  5.0365119 0.29566425 -0.050819512
v  5.0500002 0.30000001 0
v  5.0014901 0.28601012 -0.09054336
v  4.9000001 0.15000001 0
v  4.9538226 0.2770482 -0.11508384
v  4.8461776 0.2770482 -0.11508384
v  4.9000001 0.27343136 -0.12343135
v  4.7634883 0.29566425 -0.050819512
v  4.7985096 0.28601012 -0.09054336
v  4.75 0.30000001 0
v  4.7534356 0.29886496 0.026071282
v  4.7534356 0.29886496 -0.026071282
v  4.7634883 0.29566425 0.050819512
v  4.7985096 0.28601012 0.09054336
v  4.8461776 0.2770482 0.11508384
v  4.9538226 0.2770482 0.11508384
v  4.9000001 0.27343136 0.12343135
v  5.0365119 0.29566425 0.050819512
v  5.0014901 0.28601012 0.09054336
v  5.0465641 0.29886496 0.026071282
v  5.4499998 0.30000001 0
v  5.4499998 0.28977776 0.077645712
v  5.4499998 0.25980762 0.15000001
v  0 0.25980762 0.15000001
v  0 0.28977776 0.077645712
v  0 0.30000001 0
v  0 0.28977776 -0.077645712
v  0 0.25980762 -0.15000001
v  5.4499998 0.25980762 -0.15000001
v  5.4499998 0.28977776 -0.077645712
v  0 0.21213204 0.21213204
v  5.4499998 0.21213204 0.21213204
v  0 0.15000001 0.25980762
v  5.4499998 0.15000001 0.25980762
v  0 0.077645712 0.28977776
v  5.4499998 0.077645712 0.28977776
v  0 0 0.30000001
v  5.4499998 0 0.30000001
v  0 -0.077645712 0.28977776
v  5.4499998 -0.077645712 0.28977776
v  0 -0.15000001 0.25980762
v  5.4499998 -0.15000001 0.25980762
v  0 -0.21213204 0.21213204
v  5.4499998 -0.21213204 0.21213204
v  0 -0.25980762 0.15000001
v  5.4499998 -0.25980762 0.15000001
v  0 -0.28977776 0.077645712
v  5.4499998 -0.28977776 0.077645712
v  0 -0.30000001 0
v  5.4499998 -0.30000001 0
v  0 -0.28977776 -0.077645712
v  5.4499998 -0.28977776 -0.077645712
v  0 -0.25980762 -0.15000001
v  5.4499998 -0.25980762 -0.15000001
v  0 -0.21213204 -0.21213204
v  5.4499998 -0.21213204 -0.21213204
v  0 -0.15000001 -0.25980762
v  5.4499998 -0.15000001 -0.25980762
v  0 -0.077645712 -0.28977776
v  5.4499998 -0.077645712 -0.28977776
v  0 0 -0.30000001
v  5.4499998 0 -0.30000001
v  0 0.077645712 -0.28977776
v  5.4499998 0.077645712 -0.28977776
v  0 0.15000001 -0.25980762
v  5.4499998 0.15000001 -0.25980762
v  0 0.21213204 -0.21213204
v  5.4499998 0.21213204 -0.21213204
v  5.5 0.25 0
v  5.5 0.23987325 0.07043314
v  5.5 0.21031338 0.13516021
v  5.5 0.16371518 0.1889374
v  5.5 0.10385375 0.22740799
v  5.5 0.035578709 0.24745536
v  5.5 -0.035578709 0.24745536
v  5.5 -0.10385375 0.22740799
v  5.5 -0.16371518 0.1889374
v  5.5 -0.21031338 0.13516021
v  5.5 -0.23987325 0.07043314
v  5.5 -0.25 0
v  5.5 -0.23987325 -0.07043314
v  5.5 -0.21031338 -0.13516021
v  5.5 -0.16371518 -0.1889374
v  5.5 -0.10385375 -0.22740799
v  5.5 -0.035578709 -0.24745536
v  5.5 0.035578709 -0.24745536
v  5.5 0.10385375 -0.22740799
v  5.5 0.16371518 -0.1889374
v  5.5 0.21031338 -0.13516021
v  5.5 0.23987325 -0.07043314

# 0 UV coordinates

# 116 vertex normals
vn -0.29843199 0.95442832 -0.0022203077
vn -0.2479129 0.96863592 -0.016841015
vn -0.68273193 0.68273234 0.26029542
vn -0.42657092 0.69977254 0.57302326
vn 0.15527803 0.69853014 0.6985302
vn 0.61085123 0.70092499 0.36819148
vn 0.31370127 0.94952172 0
vn 0.30338696 0.95286745 0
vn 0.71674412 0.69431847 -0.06480474
vn 0.61085123 0.70092499 -0.36819148
vn 0.4265677 0.69977295 -0.57302517
vn -0.15527803 0.69853014 -0.6985302
vn -0.61084867 0.70092446 -0.36819673
vn -0.29843199 0.95442832 0.0022203077
vn -0.70144153 0.70144194 -0.12632872
vn -0.42657092 0.69977254 -0.57302326
vn 0.15527803 0.69853014 -0.6985302
vn 0.68358427 0.70566654 0.18640609
vn -0.15527803 0.69853014 0.6985302
vn 0.4265677 0.69977295 0.57302517
vn 0 0.99905366 -0.043495256
vn 0 0.99905366 0.043495256
vn 0.0056449622 0.99143022 0.13051538
vn 0.0056460537 0.99142903 0.13052417
vn -0.0014077458 0.97199804 0.23498474
vn 0.0020876185 0.93800867 0.34660548
vn 0.0051722392 0.92386711 0.38267842
vn 0.0026679102 0.9111793 0.41200137
vn 0 0.88983393 0.45628458
vn -0.00038175232 0.91667181 0.39964065
vn -0.00052956812 0.92387938 0.38268349
vn -0.00018543113 0.93920797 0.34334865
vn 0.00012851463 0.9717409 0.23605005
vn -0.00049010554 0.99144471 0.13052623
vn -0.00046770246 0.99171597 0.12844945
vn -0.00046770246 0.99171597 -0.12844945
vn -0.00049010554 0.99144471 -0.13052623
vn 0.00012851463 0.9717409 -0.23605005
vn -0.00018543113 0.93920797 -0.34334865
vn -0.00052956812 0.92387938 -0.38268349
vn -0.00038175232 0.91667181 -0.39964065
vn 0 0.88983393 -0.45628458
vn 0.0026679102 0.9111793 -0.41200137
vn 0.0051722392 0.92386711 -0.38267842
vn 0.0020876185 0.93800867 -0.34660548
vn -0.0014077458 0.97199804 -0.23498474
vn 0.0056465967 0.9914301 -0.13051604
vn 0.0056455331 0.99142903 -0.13052417
vn 0 0.79335338 0.60876137
vn 0 0.60876137 0.79335338
vn 0 0.38268355 0.9238795
vn 0 0.13052624 0.99144483
vn 0 -0.13052624 0.99144483
vn 0 -0.38268355 0.9238795
vn 0 -0.60876137 0.79335338
vn 0 -0.79335338 0.60876137
vn 0 -0.9238795 0.38268355
vn 0 -0.99144483 0.13052624
vn -0 -0.99144483 -0.13052624
vn -0 -0.9238795 -0.38268355
vn -0 -0.79335338 -0.60876137
vn -0 -0.60876137 -0.79335338
vn -0 -0.38268355 -0.9238795
vn -0 -0.13052624 -0.99144483
vn 0 0.13052624 -0.99144483
vn 0 0.38268355 -0.9238795
vn 0 0.60876137 -0.79335338
vn 0 0.79335338 -0.60876137
vn 0.70406133 0.70406383 -0.092691801
vn 0.70406133 0.70406383 0.092691801
vn 0.7100777 0.6969564 0.10020718
vn 0.69894803 0.66073316 0.27368471
vn 0.7153458 0.63562411 0.29027987
vn 0.69477516 0.57060117 0.43783763
vn 0.71936369 0.5249691 0.45488828
vn 0.69159663 0.43969858 0.57302642
vn 0.72219169 0.3739574 0.58188921
vn 0.68945408 0.27718893 0.66919309
vn 0.72387201 0.19437699 0.66198707
vn 0.68837565 0.094677784 0.71914887
vn 0.72442937 0 0.68934906
vn 0.68837565 -0.094677784 0.71914887
vn 0.72387201 -0.19437699 0.66198707
vn 0.68945408 -0.27718893 0.66919309
vn 0.72219169 -0.3739574 0.58188921
vn 0.69159663 -0.43969858 0.57302642
vn 0.71936369 -0.5249691 0.45488828
vn 0.69477516 -0.57060117 0.43783763
vn 0.7153458 -0.63562411 0.29027987
vn 0.69894803 -0.66073316 0.27368471
vn 0.7100777 -0.6969564 0.10020718
vn 0.70406133 -0.70406383 0.092691801
vn 0.70406133 -0.70406383 -0.092691801
vn 0.7100777 -0.6969564 -0.10020718
vn 0.69894803 -0.66073316 -0.27368471
vn 0.7153458 -0.63562411 -0.29027987
vn 0.69477516 -0.57060117 -0.43783763
vn 0.71936369 -0.5249691 -0.45488828
vn 0.69159663 -0.43969858 -0.57302642
vn 0.72219169 -0.3739574 -0.58188921
vn 0.68945408 -0.27718893 -0.66919309
vn 0.72387201 -0.19437699 -0.66198707
vn 0.68837565 -0.094677784 -0.71914887
vn 0.72442937 0 -0.68934906
vn 0.68837565 0.094677784 -0.71914887
vn 0.72387201 0.19437699 -0.66198707
vn 0.68945408 0.27718893 -0.66919309
vn 0.72219169 0.3739574 -0.58188921
vn 0.69159663 0.43969858 -0.57302642
vn 0.71936369 0.5249691 -0.45488828
vn 0.69477516 0.57060117 -0.43783763
vn 0.7153458 0.63562411 -0.29027987
vn 0.69894803 0.66073316 -0.27368471
vn 0.7100777 0.6969564 -0.10020718
vn 1 0 0
vn -1 0 0

# Mesh '' with 178 faces
usemtl DefaultMaterial
f  1//1 2//1 3//1
f  3//2 2//2 4//2
f  3//3 4//3 5//3
f  4//4 6//4 5//4
f  7//5 5//5 8//5
f  9//6 5//6 10//6
f  11//7 12//7 13//7
f  13//8 12//8 14//8
f  13//9 14//9 5//9
f  14//10 15//10 5//10
f  15//11 16//11 5//11
f  17//12 5//12 18//12
f  19//13 5//13 20//13
f  21//14 3//14 19//14
f  19//15 3//15 5//15
f  20//16 5//16 17//16
f  18//17 5//17 16//17
f  13//18 5//18 9//18
f  8//19 5//19 6//19
f  10//20 5//20 7//20
f  1//21 3//21 22//21
f  22//22 3//22 21//22
f  22//23 21//23 19//23
f  22//24 19//24 23//24
f  23//25 19//25 20//25
f  23//26 20//26 17//26
f  23//27 17//27 24//27
f  24//28 17//28 18//28
f  24//29 18//29 25//29
f  25//30 18//30 16//30
f  25//31 16//31 26//31
f  26//32 16//32 15//32
f  26//33 15//33 14//33
f  26//34 14//34 27//34
f  27//35 14//35 12//35
f  27//22 12//22 11//22
f  11//21 13//21 27//21
f  27//36 13//36 9//36
f  27//37 9//37 28//37
f  28//38 9//38 10//38
f  28//39 10//39 7//39
f  28//40 7//40 29//40
f  29//41 7//41 8//41
f  29//42 8//42 30//42
f  30//43 8//43 6//43
f  30//44 6//44 31//44
f  31//45 6//45 4//45
f  31//46 4//46 2//46
f  2//47 1//47 31//47
f  31//48 1//48 22//48
f  25//49 32//49 24//49
f  24//49 32//49 33//49
f  33//50 32//50 34//50
f  33//50 34//50 35//50
f  35//51 34//51 36//51
f  35//51 36//51 37//51
f  37//52 36//52 38//52
f  37//52 38//52 39//52
f  39//53 38//53 40//53
f  39//53 40//53 41//53
f  41//54 40//54 42//54
f  41//54 42//54 43//54
f  43//55 42//55 44//55
f  43//55 44//55 45//55
f  45//56 44//56 46//56
f  45//56 46//56 47//56
f  47//57 46//57 48//57
f  47//57 48//57 49//57
f  49//58 48//58 50//58
f  49//58 50//58 51//58
f  51//59 50//59 52//59
f  51//59 52//59 53//59
f  53//60 52//60 54//60
f  53//60 54//60 55//60
f  55//61 54//61 56//61
f  55//61 56//61 57//61
f  57//62 56//62 58//62
f  57//62 58//62 59//62
f  59//63 58//63 60//63
f  59//63 60//63 61//63
f  61//64 60//64 62//64
f  61//64 62//64 63//64
f  63//65 62//65 64//65
f  63//65 64//65 65//65
f  65//66 64//66 66//66
f  65//66 66//66 67//66
f  67//67 66//67 68//67
f  67//67 68//67 69//67
f  69//68 68//68 29//68
f  69//68 29//68 30//68
f  31//69 22//69 70//69
f  70//70 22//70 23//70
f  70//71 23//71 71//71
f  71//72 23//72 24//72
f  71//73 24//73 72//73
f  72//74 24//74 33//74
f  72//75 33//75 73//75
f  73//76 33//76 35//76
f  73//77 35//77 74//77
f  74//78 35//78 37//78
f  74//79 37//79 75//79
f  75//80 37//80 39//80
f  75//81 39//81 76//81
f  76//82 39//82 41//82
f  76//83 41//83 77//83
f  77//84 41//84 43//84
f  77//85 43//85 78//85
f  78//86 43//86 45//86
f  78//87 45//87 79//87
f  79//88 45//88 47//88
f  79//89 47//89 80//89
f  80//90 47//90 49//90
f  80//91 49//91 81//91
f  81//92 49//92 51//92
f  81//93 51//93 53//93
f  81//94 53//94 82//94
f  82//95 53//95 55//95
f  82//96 55//96 83//96
f  83//97 55//97 57//97
f  83//98 57//98 84//98
f  84//99 57//99 59//99
f  84//100 59//100 85//100
f  85//101 59//101 61//101
f  85//102 61//102 86//102
f  86//103 61//103 63//103
f  86//104 63//104 87//104
f  87//105 63//105 65//105
f  87//106 65//106 88//106
f  88//107 65//107 67//107
f  88//108 67//108 89//108
f  89//109 67//109 69//109
f  89//110 69//110 90//110
f  90//111 69//111 30//111
f  90//112 30//112 91//112
f  91//113 30//113 31//113
f  91//114 31//114 70//114
f  71//115 81//115 70//115
f  70//115 81//115 82//115
f  70//115 82//115 91//115
f  91//115 82//115 83//115
f  91//115 83//115 90//115
f  90//115 83//115 84//115
f  90//115 84//115 89//115
f  89//115 84//115 85//115
f  89//115 85//115 88//115
f  88//115 85//115 86//115
f  88//115 86//115 87//115
f  71//115 72//115 81//115
f  81//115 72//115 73//115
f  81//115 73//115 74//115
f  74//115 75//115 81//115
f  81//115 75//115 76//115
f  81//115 76//115 77//115
f  77//115 78//115 81//115
f  81//115 78//115 79//115
f  81//115 79//115 80//115
f  27//116 28//116 26//116
f  26//116 28//116 25//116
f  25//116 28//116 29//116
f  25//116 29//116 32//116
f  32//116 29//116 68//116
f  32//116 68//116 34//116
f  34//116 68//116 66//116
f  34//116 66//116 36//116
f  36//116 66//116 64//116
f  36//116 64//116 38//116
f  38//116 64//116 62//116
f  38//116 62//116 40//116
f  40//116 62//116 60//116
f  40//116 60//116 42//116
f  42//116 60//116 58//116
f  42//116 58//116 44//116
f  44//116 58//116 56//116
f  44//116 56//116 46//116
f  46//116 56//116 54//116
f  46//116 54//116 48//116
f  48//116 54//116 52//116
f  48//116 52//116 50//116

